<?xml version="1.0" standalone="no"?><!DOCTYPE svg PUBLIC "-//W3C//DTD SVG 1.1//EN" "http://www.w3.org/Graphics/SVG/1.1/DTD/svg11.dtd"><svg t="1588920399293" class="icon" viewBox="0 0 2331 1024" version="1.1" xmlns="http://www.w3.org/2000/svg" p-id="25243" xmlns:xlink="http://www.w3.org/1999/xlink" width="455.2734375" height="200"><defs><style type="text/css"></style></defs><path d="M791.379 525.028c0 198.058 166.156 358.621 371.097 358.621 204.958 0 371.114-160.563 371.114-358.62 0-198.074-166.156-358.637-371.114-358.637-204.957 0-371.097 160.563-371.097 358.636z" fill="#E2F1FF" p-id="25244"></path><path d="M1162.476 896.126c-211.416 0-383.559-166.518-383.559-371.098s172.127-371.113 383.56-371.113c211.432 0 383.574 166.518 383.574 371.098 0 204.563-172.142 371.097-383.575 371.097z m0-717.257c-197.71 0-358.62 155.302-358.62 346.16 0 190.842 160.91 346.143 358.62 346.143 197.711 0 358.637-155.301 358.637-346.144 0-190.857-160.926-346.159-358.637-346.159z" fill="#82C3FF" p-id="25245"></path><path d="M935.526 413.223l95.264 95.28a19.692 19.692 0 0 1 0 28.215 19.692 19.692 0 0 1-28.215 0l-95.264-95.264a19.692 19.692 0 0 1 0-28.215 19.692 19.692 0 0 1 28.215 0z" fill="#82C3FF" p-id="25246"></path><path d="M1030.79 441.454l-95.264 95.264a19.692 19.692 0 0 1-28.215 0 19.692 19.692 0 0 1 0-28.215l95.264-95.264a19.692 19.692 0 0 1 28.215 0 20.102 20.102 0 0 1 0 28.215z" fill="#82C3FF" p-id="25247"></path><path d="M765.432 127.15l38.802 38.817a7.578 7.578 0 0 1 0 10.586 7.578 7.578 0 0 1-10.571 0l-38.817-38.817a7.578 7.578 0 0 1 0-10.587 7.2 7.2 0 0 1 10.586 0z" fill="#D8D8D8" p-id="25248"></path><path d="M804.234 137.736l-38.802 38.817a7.578 7.578 0 0 1-10.586 0 7.578 7.578 0 0 1 0-10.586l38.817-38.818a7.578 7.578 0 0 1 10.57 0c3.53 2.647 3.089 7.5 0 10.587zM1607.412 2.41l38.818 38.818a7.578 7.578 0 0 1 0 10.586 7.578 7.578 0 0 1-10.587 0l-38.817-38.817a7.578 7.578 0 0 1 0-10.587 7.2 7.2 0 0 1 10.586 0z" fill="#82C3FF" p-id="25249"></path><path d="M1646.23 12.997l-38.818 38.817a7.578 7.578 0 0 1-10.586 0 7.578 7.578 0 0 1 0-10.586l38.817-38.818a7.578 7.578 0 0 1 10.587 0c3.529 2.647 3.087 7.5 0 10.587z m641.402 673.209l41.007 41.023a9.578 9.578 0 0 1 0 13.233 9.578 9.578 0 0 1-13.233 0l-41.007-41.023a9.578 9.578 0 0 1 0-13.233c4.41-3.529 9.688-3.529 13.233 0z" fill="#E2F1FF" p-id="25250"></path><path d="M2328.639 698.998l-41.023 41.007c-3.529 3.53-9.263 3.986-12.776 0.442a9.578 9.578 0 0 1 0-13.234l41.007-41.007a9.578 9.578 0 0 1 13.233 0c3.529 3.529 3.088 9.263-0.441 12.792z m-2186.54-262.27l41.008 41.023a9.578 9.578 0 0 1 0 13.233 9.578 9.578 0 0 1-13.233 0l-41.008-41.023a9.578 9.578 0 0 1 0-13.233c4.412-3.513 9.705-3.513 13.234 0z" fill="#E2F1FF" p-id="25251"></path><path d="M183.123 449.52l-41.008 41.008c-3.528 3.528-9.263 3.985-12.776 0.44a9.578 9.578 0 0 1 0-13.233l41.007-41.007a9.578 9.578 0 0 1 13.234 0c3.528 3.529 3.087 9.263-0.442 12.792zM348.57 917.945a21.835 21.835 0 1 0 43.638 0.016 21.835 21.835 0 0 0-43.638 0z m455.286 21.835a12.477 12.477 0 1 0 24.954 0 12.477 12.477 0 0 0-24.954 0z m-81.07-642.41a12.477 12.477 0 1 0 24.939 0 12.477 12.477 0 0 0-24.939 0z m629.918-237.001a12.477 12.477 0 1 0 24.954 0 12.477 12.477 0 0 0-24.954 0z m261.955 888.769a15.596 15.596 0 1 0 31.193 0 15.596 15.596 0 0 0-31.193 0z m-279.962-535.915l95.264 95.28a19.692 19.692 0 0 1 0 28.215 19.692 19.692 0 0 1-28.231 0l-95.264-95.264a19.692 19.692 0 0 1 0-28.215 19.692 19.692 0 0 1 28.231 0z" fill="#82C3FF" p-id="25252"></path><path d="M1429.96 441.454l-95.263 95.264a19.692 19.692 0 0 1-28.23 0 19.692 19.692 0 0 1 0-28.215l95.263-95.264a19.692 19.692 0 0 1 28.23 0 20.102 20.102 0 0 1 0 28.215zM1012.8 671.586h305.609c15.596 0 28.073 12.478 28.073 28.074s-12.477 28.057-28.073 28.057h-305.625c-15.58 0-28.042-12.46-28.042-28.057 0-15.596 12.462-28.074 28.042-28.074z" fill="#82C3FF" p-id="25253"></path><path d="M390.349 284.908l-178.995 344.9v92.317H482.65v130.331h121.62V725.228c53.641 1.875 80.47 1.875 80.47 0V624.813H607.39V493.836H484.525v127.858H345.45l170.268-336.786h-125.37z" fill="#E2F1FF" p-id="25254"></path><path d="M604.9 861.814H482.65a9.594 9.594 0 0 1-9.341-9.358v-120.99H211.354a9.594 9.594 0 0 1-9.358-9.357v-92.317c0-1.23 0.63-3.104 1.26-4.349l178.98-344.914a9.736 9.736 0 0 1 8.113-4.978h125.369c3.12 0 6.238 1.858 8.097 4.363 1.89 2.49 1.89 6.239 0.63 9.358L361.032 612.966h114.137v-118.5c0-4.994 4.363-9.358 9.357-9.358h122.88c4.979 0 9.342 4.364 9.342 9.358v120.99h68.608c4.994 0 9.358 4.363 9.358 9.357v100.415c0 2.49-1.26 4.994-3.12 6.869-3.733 3.12-5.608 5.608-77.965 2.49v117.87c0.63 4.993-3.734 9.357-8.728 9.357z m-112.892-18.7h102.92V725.228c0-2.489 1.245-4.994 3.12-6.853a9.374 9.374 0 0 1 6.852-2.504c43.654 1.874 62.37 1.874 71.098 1.26v-82.96H607.39a9.594 9.594 0 0 1-9.342-9.358v-121.62H493.883v118.501a9.594 9.594 0 0 1-9.358 9.358H345.45a10.665 10.665 0 0 1-8.113-4.364c-1.875-2.49-1.875-6.239-0.63-9.358l163.415-323.694H395.957L220.711 631.682v80.455h261.94c4.994 0 9.357 4.364 9.357 9.358v121.62z" fill="#82C3FF" p-id="25255"></path><path d="M1837.324 284.908l-179.011 344.9v92.317h271.313v130.331h121.62V725.228c53.641 1.875 80.454 1.875 80.454 0V624.813h-77.95V493.836h-122.88v127.858h-139.075l171.512-336.786h-125.983z" fill="#E2F1FF" p-id="25256"></path><path d="M2051.875 861.814h-121.62a9.594 9.594 0 0 1-9.357-9.358v-120.99h-261.955a9.594 9.594 0 0 1-9.358-9.357v-92.317c0-1.23 0.63-3.104 1.26-4.349l178.996-344.914a9.736 9.736 0 0 1 8.097-4.978h125.37c3.119 0 6.238 1.858 8.113 4.363 1.859 2.49 1.859 6.239 0.63 9.358l-164.045 323.694h114.137v-118.5c0-4.994 4.363-9.358 9.357-9.358h122.88c4.979 0 9.342 4.364 9.342 9.358v120.99h68.608c4.994 0 9.358 4.363 9.358 9.357v100.415c0 2.49-1.26 4.994-3.12 6.869-3.749 3.12-5.623 5.608-77.965 2.49v117.87c0.63 4.993-3.75 9.357-8.728 9.357z m-112.892-18.7h102.905V725.228c0-2.489 1.26-4.994 3.119-6.853a9.374 9.374 0 0 1 6.868-2.504c43.654 1.874 62.37 1.874 71.098 1.26v-82.96h-68.608a9.594 9.594 0 0 1-9.358-9.358v-121.62h-104.133v118.501a9.594 9.594 0 0 1-9.358 9.358h-139.09a10.665 10.665 0 0 1-8.098-4.364c-1.89-2.49-1.89-6.239-0.63-9.358l163.414-323.694h-104.778l-175.262 338.046v80.455h261.955c4.978 0 9.342 4.364 9.342 9.358v121.62h0.63zM404.701 995.911H529.44c6.852 0 12.46 5.608 12.46 12.477a12.509 12.509 0 0 1-12.46 12.477H404.7a12.509 12.509 0 0 1-12.476-12.477c0-6.869 5.608-12.477 12.477-12.477z m1422.02 0h124.74c6.852 0 12.476 5.608 12.476 12.477a12.509 12.509 0 0 1-12.477 12.477h-124.739a12.509 12.509 0 0 1-12.477-12.477c0-6.869 5.609-12.477 12.477-12.477z m-1222.45 0h1147.604c6.853 0 12.477 5.608 12.477 12.477a12.509 12.509 0 0 1-12.477 12.477H604.27a12.509 12.509 0 0 1-12.461-12.477c0-6.869 5.608-12.477 12.461-12.477z m900-194.592c-101.044 0-249.477-39.29-369.852-89.182-191.473-79.21-419.131-221.42-452.797-306.87-5.624-14.965-6.239-28.057-1.26-39.29 34.311-77.95 157.175-44.898 162.17-43.653a12.477 12.477 0 0 1 8.727 15.596 12.477 12.477 0 0 1-15.596 8.728c-1.245 0-107.284-28.688-132.837 29.302-2.505 4.994-1.89 11.862 1.86 19.976 30.562 76.09 256.976 217.655 439.09 293.131 224.524 92.932 389.184 99.785 434.082 74.217 8.743-4.994 9.988-9.358 9.988-12.477 0.63-10.603-8.728-36.171-81.085-91.688-5.609-4.363-6.239-11.846-2.49-17.455 4.365-5.608 11.848-6.238 17.456-2.489 64.244 49.262 92.948 85.433 91.057 113.507-0.63 9.357-4.978 22.449-23.063 32.437-19.96 11.216-49.909 16.226-85.45 16.226z" fill="#82C3FF" p-id="25257"></path></svg>