<?xml version="1.0" standalone="no"?><!DOCTYPE svg PUBLIC "-//W3C//DTD SVG 1.1//EN" "http://www.w3.org/Graphics/SVG/1.1/DTD/svg11.dtd"><svg t="1588919376927" class="icon" viewBox="0 0 1883 1024" version="1.1" xmlns="http://www.w3.org/2000/svg" p-id="14199" xmlns:xlink="http://www.w3.org/1999/xlink" width="367.7734375" height="200"><defs><style type="text/css"></style></defs><path d="M23.013743 962.826429a924.614858 61.173571 0 1 0 1849.229716 0 924.614858 61.173571 0 1 0-1849.229716 0Z" fill="#B8C8D3" p-id="14200"></path><path d="M912.221548 292.721671c-150.567614 0-258.89216 96.580623-258.89216 322.16912 0 255.561794 108.149264 323.220815 258.89216 323.220815s265.202328-74.144471 265.202328-323.220815c0.175282-266.254023-114.459432-322.16912-265.202328-322.16912z m1.051695 560.553235c-104.29305 0-158.805888-61.173571-158.805889-238.208833 0-156.176652 56.79151-238.559397 161.084561-238.559397s161.08456 54.162273 161.08456 238.559397c0 172.477919-59.070181 238.208833-163.363232 238.208833z" fill="#409EFF" p-id="14201"></path><path d="M946.576906 919.70695c-83.785005 0-144.783293-21.55974-186.500514-66.081479-49.254365-52.409449-73.092776-136.895584-73.092776-258.015748 0-107.973982 24.539541-190.882574 73.092776-246.271825 44.697022-51.007189 107.448134-76.773708 186.500514-76.773708 87.290654 0 147.587812 19.456351 189.655597 61.524136 51.357754 51.182472 76.423143 136.720301 76.423143 261.521397 0 4.732626 0 9.289969-0.175282 13.847312h-1.752825c0-4.557343 0.175282-9.114687 0.175283-13.847312 0-124.450531-24.890106-209.462513-75.897296-260.29442-41.71722-41.541938-101.663814-60.998288-188.42862-60.998288-166.343033 0-258.015748 114.108867-258.015748 321.292708 0 222.959261 79.578227 322.344403 258.015748 322.344402 68.710716 0 122.522424-15.07429 164.064362-46.274563l1.051694 1.402259c-41.892503 31.375556-95.879493 46.625128-165.116056 46.625129z m176.684697-37.510442c-1.051695 0-2.103389-0.175282-2.979801-0.525847-8.062992-3.155084-8.939404-19.281068-9.991099-37.861007-1.40226-22.611434-2.804519-48.027388-17.352962-54.68812-11.218076-5.083191-28.921602 1.577542-53.98699 20.683327l-0.525848-0.701129 0.525848 0.701129c-24.188976 16.827114-53.986991 25.065389-91.32215 25.065389-112.005478 0-159.682301-71.515235-159.682301-239.085245 0-77.65012 14.022595-137.771996 41.541938-178.437521 27.519343-40.490243 68.009586-61.173571 120.419034-61.173571 56.440945 0 94.827799 15.950702 120.419035 50.481342 28.04519 37.685724 41.541938 99.385142 41.541938 188.954468 0 29.44745-1.752824 56.440945-5.258474 80.104074l-1.752824-0.175283c3.505649-23.663129 5.258473-50.481342 5.258473-79.928791 0-89.218761-13.496748-150.567614-41.191373-187.902773-25.240671-34.004793-63.101678-49.780212-119.016775-49.780213-51.708319 0-91.847997 20.332763-119.016775 60.297159-27.34406 40.314961-41.191373 100.086272-41.191373 177.385827 0 166.343033 47.326258 237.33242 157.929477 237.33242 36.984594 0 66.432044-8.062992 90.270455-24.714824 25.591236-19.631633 43.820609-26.467648 55.739815-21.033892 15.424855 7.011298 17.002396 33.128381 18.229374 56.265662 1.051695 17.352961 1.928107 33.654228 8.939404 36.283465 4.557343 1.752824 11.393358-2.103389 21.384457-11.568641l1.226977 1.226977c-8.588839 8.764122-15.249572 12.795618-20.15748 12.795618z" fill="#3F3D56" p-id="14202"></path><path d="M1486.446814 292.721671c-150.567614 0-258.89216 96.580623-258.892161 322.16912 0 255.561794 108.149264 323.220815 258.892161 323.220815s265.202328-74.144471 265.202328-323.220815C1751.824424 348.636768 1637.18971 292.721671 1486.446814 292.721671z m1.051694 560.553235c-104.29305 0-158.805888-61.173571-158.805888-238.208833 0-156.176652 56.79151-238.559397 161.08456-238.559397s161.08456 54.162273 161.08456 238.559397c0 172.477919-59.070181 238.208833-163.363232 238.208833z" fill="#409EFF" p-id="14203"></path><path d="M1290.130484 968.61075c-17.002396 0-33.478946-2.453954-48.903801-8.238275l0.70113-1.577542c51.533037 19.281068 113.407737 0.350565 173.179048-17.878808 38.386854-11.743923 74.845601-22.786717 105.870593-22.786717 177.911674 0 264.325916-105.520027 264.325916-322.344403 0-124.450531-24.890106-209.462513-75.897296-260.29442-41.71722-41.541938-101.663814-60.998288-188.42862-60.998288-166.343033 0-258.015748 114.108867-258.015748 321.292708 0 14.197877-4.206779 23.312564-9.640534 34.705923-3.330366 7.18658-7.361862 15.424855-10.867511 26.64293l-1.752825-0.525847c3.680931-11.218076 7.537145-19.631633 11.042794-26.818213 5.258473-11.218076 9.465252-20.15748 9.465251-34.004793 0-107.973982 24.539541-190.882574 73.092777-246.271825 44.697022-51.007189 107.448134-76.773708 186.500513-76.773707 87.290654 0 147.587812 19.456351 189.655598 61.524135 51.357754 51.182472 76.423143 136.720301 76.423142 261.521397 0 218.051352-87.115371 324.097227-266.07874 324.097227-30.849709 0-66.957891 11.042794-105.344745 22.786717-42.067785 12.795618-85.187265 25.941801-125.326942 25.941801z m231.723382-133.7405c-55.915098 0-95.528928-18.229374-120.944882-55.564533l1.40226-1.051694-1.40226 1.051694-1.051695-1.577542c-19.105786-28.04519-29.622732-43.470045-85.713112-21.55974l-0.701129-1.577541c57.49264-22.611434 68.885998-5.78432 87.816501 22.085587l1.051695 1.577542c25.415953 37.335159 63.452242 54.863403 119.542622 54.863403 110.778501 0 162.48682-75.371448 162.48682-237.332421 0-89.218761-13.496748-150.567614-41.191373-187.902773-25.240671-34.004793-63.101678-49.780212-119.016775-49.780212-51.708319 0-91.847997 20.332763-119.016775 60.297158-27.34406 40.314961-41.191373 100.086272-41.191373 177.385827 0 19.456351 0.70113 37.685724 1.928107 54.512838l-1.752825 0.175283c-1.40226-16.827114-1.928107-35.23177-1.928107-54.512838 0-77.65012 14.022595-137.771996 41.541938-178.437522 27.519343-40.490243 68.009586-61.173571 120.419035-61.173571 56.440945 0 94.827799 15.950702 120.419034 50.481342 28.04519 37.685724 41.541938 99.385142 41.541938 188.954468 0 163.012667-52.234166 239.085245-164.239644 239.085245z" fill="#3F3D56" p-id="14204"></path><path d="M1764.970607 735.309825c18.930503 6.836015 39.789113-2.804519 46.800411-21.735022 6.836015-18.930503-2.804519-39.789113-21.735023-46.800411-6.48545-2.278672-13.321465-2.804519-20.15748-1.402259l0.876412 18.755221-8.939404-16.125985c-8.764122 4.031496-15.424855 11.568641-18.755221 20.508046-1.226977 3.155084-1.928107 6.48545-2.103389 9.815816-1.226977 16.476549 8.588839 31.550839 24.013694 36.984594z" fill="#57B894" p-id="14205"></path><path d="M1808.090086 953.361178c-3.505649-18.054091 13.67203-32.953098 24.188977-40.139679 1.40226-1.051695 2.979801-1.928107 4.382061-2.979801 12.269771-8.238275 24.890106-16.827114 28.921602-30.499144 5.959603-20.508045-10.516946-39.613831-25.065389-56.440945-1.051695-1.226977-1.928107-2.278672-2.979801-3.505649-11.393358-13.146183-21.209175-27.694625-29.096885-43.294762-3.155084-6.134885-6.134885-12.795618-7.011297-19.806915-1.226977-10.516946 2.278672-21.209175 5.258473-29.798015 10.692229-31.550839 22.26087-63.101678 34.355358-94.126669l1.577542 0.70113c-12.094488 30.849709-23.663129 62.57583-34.355358 93.951387-2.804519 8.413557-6.310168 18.930503-5.258473 28.921602 0.876412 6.836015 3.856214 13.321465 6.836015 19.281068 7.88771 15.424855 17.528244 29.798014 28.921602 42.944197 1.051695 1.051695 1.928107 2.278672 2.979801 3.505649 14.899007 17.177679 31.726121 36.634029 25.415954 58.193769-4.206779 14.197877-17.177679 22.961999-29.622732 31.375557-1.40226 1.051695-2.979801 1.928107-4.382061 2.979801-10.166381 7.011298-26.818213 21.384457-23.487847 38.386854l-1.577542 0.350565z" fill="#3F3D56" p-id="14206"></path><path d="M1778.817919 733.732283c-4.382061 0-8.588839-0.70113-12.795618-2.278671-15.600137-5.609038-25.766518-21.209175-24.539541-37.685724 0.175282-3.505649 0.876412-6.836015 2.103389-10.166382 3.330366-9.289969 10.166381-16.827114 19.105786-21.033892l0.70113-0.350565 7.537145 13.496748-0.70113-15.77542 0.70113-0.175282c6.836015-1.40226 14.022595-1.051695 20.508045 1.402259 9.465252 3.330366 16.827114 10.341664 21.033892 19.281068 4.206779 9.114687 4.732626 19.105786 1.226977 28.571038-3.330366 9.289969-10.341664 16.827114-19.281068 21.033892-4.732626 2.453954-10.166381 3.680931-15.600137 3.680931z m-15.950701-69.236562c-8.238275 4.031496-14.37316 11.042794-17.528244 19.631633-1.051695 3.155084-1.752824 6.310168-2.103389 9.640534-1.051695 15.775419 8.413557 30.499144 23.312564 35.932899 8.939404 3.330366 18.579938 2.804519 27.168778-1.226977s15.07429-11.218076 18.404655-20.15748c3.330366-8.939404 2.804519-18.579938-1.226977-27.168778s-11.218076-15.07429-20.15748-18.404656c-6.134885-2.278672-12.620336-2.629237-18.930503-1.577542l1.051694 21.735023-9.991098-18.404656z" fill="#3F3D56" p-id="14207"></path><path d="M1804.409155 626.809997c4.206779-11.743923 14.197877-20.332763 26.292366-23.137282l2.979801 17.878808 5.609038-18.75522c20.15748 0.350565 36.283465 16.827114 35.9329 36.984594-0.350565 20.15748-16.827114 36.283465-36.984594 35.9329-20.15748-0.350565-36.283465-16.827114-35.9329-36.984595 0-4.031496 0.70113-8.062992 2.103389-11.919205z" fill="#57B894" p-id="14208"></path><path d="M1840.69262 670.104759h-0.525848c-9.991099-0.175282-19.281068-4.206779-26.292365-11.393359s-10.692229-16.651832-10.516946-26.64293c0-4.206779 0.876412-8.238275 2.278671-12.269771 4.382061-12.094488 14.37316-20.85861 26.818213-23.663129l0.876412-0.175282 2.453955 15.074289 4.732625-15.775419h0.70113c20.508045 0.350565 37.159877 17.352961 36.809312 37.861006-0.175282 9.991099-4.206779 19.281068-11.393358 26.292366-7.011298 7.011298-16.125984 10.692229-25.941801 10.692229z m-8.764122-71.8658c-11.393358 2.804519-20.683328 11.218076-24.714824 22.436152-1.40226 3.680931-2.103389 7.712427-2.103389 11.568641-0.175282 9.465252 3.505649 18.579938 9.991099 25.240671 6.660733 6.836015 15.424855 10.692229 25.065388 10.867511 9.465252 0.175282 18.579938-3.505649 25.240671-9.991099 6.836015-6.660733 10.692229-15.424855 10.867512-25.065388 0.350565-19.456351-15.07429-35.407052-34.355358-36.108182l-6.48545 21.735022-3.505649-20.683328z" fill="#3F3D56" p-id="14209"></path><path d="M1831.753215 819.620678c18.930503 6.836015 39.789113-2.979801 46.800411-21.910305 5.78432-15.950702-0.175282-33.82951-14.37316-43.119479l-4.206778 14.373159-2.979802-18.054091h-0.175282c-18.930503-6.836015-39.789113 2.979801-46.800411 21.910305s2.804519 39.964396 21.735022 46.800411z" fill="#57B894" p-id="14210"></path><path d="M1845.951093 816.115029c-4.382061 0-8.588839-0.70113-12.795618-2.278672-9.465252-3.505649-16.827114-10.341664-21.033893-19.281068-4.206779-9.114687-4.732626-19.105786-1.226977-28.571037 3.330366-9.465252 10.341664-16.827114 19.281069-21.033893 9.114687-4.206779 19.105786-4.732626 28.571037-1.226977l0.525847 0.175283 2.453954 14.723725 3.505649-11.919206 1.051695 0.70113c14.723725 9.465252 20.683328 27.694625 14.723724 43.995891-3.330366 9.465252-10.166381 16.827114-19.281068 21.033893-5.083191 2.629237-10.341664 3.680931-15.775419 3.680931z m-12.094488-3.856214c8.939404 3.155084 18.579938 2.804519 27.168778-1.226977s15.07429-11.218076 18.404655-20.15748c5.609038-15.249572 0.175282-32.076686-13.146182-41.366655l-5.083191 16.827114-3.505649-21.209175c-8.764122-3.155084-18.404656-2.629237-26.818213 1.402259-8.588839 4.031496-15.07429 11.218076-18.404656 20.157481s-2.804519 18.579938 1.226977 27.168778 11.042794 15.249572 20.157481 18.404655l-0.350565 0.876413 0.350565-0.876413z" fill="#3F3D56" p-id="14211"></path><path d="M1793.716927 880.268401c3.505649 19.806915 22.436152 33.128381 42.243067 29.622732s33.128381-22.436152 29.622732-42.243067-22.436152-33.128381-42.243068-29.622732c-8.939404 1.577542-17.002396 6.48545-22.611434 13.67203l16.301267 24.539541-22.26087-12.9709c-1.577542 5.433756-2.103389 11.218076-1.051694 17.002396z" fill="#57B894" p-id="14212"></path><path d="M1831.227368 906.385484c-17.703526 0-33.654228-12.795618-36.809312-30.849709-1.051695-5.78432-0.70113-11.919206 1.051695-17.528243l0.350565-1.051695 19.806915 11.568641-14.548442-21.910305 0.350565-0.525847c5.78432-7.361862 13.847313-12.445053 23.137282-14.022595 9.815817-1.752824 19.806915 0.525847 27.869907 6.134885 8.238275 5.78432 13.67203 14.37316 15.424855 24.188977 1.752824 9.815817-0.525847 19.806915-6.134886 27.869907-5.78432 8.238275-14.37316 13.67203-24.188976 15.424855-2.103389 0.525847-4.206779 0.70113-6.310168 0.701129z m-34.355358-46.80041c-1.40226 5.083191-1.577542 10.516946-0.701129 15.600137 3.330366 19.281068 21.910305 32.251969 41.191372 28.921602 9.289969-1.577542 17.528244-6.836015 22.962-14.548443 5.433756-7.712427 7.537145-17.177679 5.959603-26.64293s-6.836015-17.528244-14.548443-22.961999c-7.712427-5.433756-17.177679-7.537145-26.64293-5.959603-8.588839 1.577542-16.301267 6.134885-21.55974 12.795618l18.054091 27.168777-24.714824-14.373159z" fill="#3F3D56" p-id="14213"></path><path d="M15.827163 824.178021c12.445053 4.557343 26.117083-1.928107 30.674426-14.37316 4.557343-12.445053-1.928107-26.117083-14.37316-30.674426-4.206779-1.577542-8.764122-1.928107-13.146182-0.876412l0.525847 12.26977-5.78432-10.516946c-5.78432 2.629237-10.166381 7.537145-12.269771 13.496748-0.70113 2.103389-1.226977 4.206779-1.40226 6.48545-0.70113 10.692229 5.78432 20.683328 15.77542 24.188976z" fill="#57B894" p-id="14214"></path><path d="M43.872353 967.559055c-2.453954-12.094488 9.114687-21.910305 16.125984-26.818213 0.876412-0.70113 1.928107-1.226977 2.804519-1.928107 8.062992-5.433756 16.301267-11.042794 18.930503-19.806915 3.856214-13.321465-6.836015-25.766518-16.476549-36.809312l-1.928107-2.278672c-7.537145-8.764122-13.847313-18.229374-19.105785-28.395755-2.278672-4.031496-3.856214-8.413557-4.557344-13.146182-0.876412-7.011298 1.577542-14.022595 3.505649-19.631633 7.011298-20.683328 14.548442-41.541938 22.611434-61.874701l1.577542 0.70113c-8.062992 20.332763-15.600137 41.01609-22.611434 61.699418-1.928107 5.433756-4.206779 12.269771-3.330366 18.930503 0.70113 4.382061 2.278672 8.588839 4.382061 12.620336 5.258473 10.166381 11.568641 19.631633 18.930503 28.220472l1.928107 2.278672c9.815817 11.393358 21.033893 24.188976 16.827114 38.386854-2.804519 9.465252-11.393358 15.249572-19.631633 20.85861-1.051695 0.70113-1.928107 1.226977-2.804519 1.928107-6.660733 4.557343-17.528244 13.847313-15.249572 24.890106l-1.928107 0.175282z" fill="#3F3D56" p-id="14215"></path><path d="M25.117132 823.476891c-2.804519 0-5.78432-0.525847-8.588839-1.577541-10.341664-3.680931-17.002396-14.022595-16.301267-25.065389 0.175282-2.278672 0.70113-4.557343 1.402259-6.660733 2.278672-6.134885 6.836015-11.218076 12.795618-14.022595l0.70113-0.350565 4.382061 8.062993-0.525847-9.28997 0.701129-0.175282c4.557343-1.051695 9.289969-0.70113 13.672031 0.876412 6.310168 2.278672 11.218076 6.836015 14.022595 12.795618 2.804519 5.959603 3.155084 12.795618 0.876412 18.930503-2.278672 6.310168-6.836015 11.218076-12.795618 14.022595-3.330366 1.577542-6.836015 2.453954-10.341664 2.453954z m-10.692229-45.398151c-5.258473 2.629237-9.114687 7.18658-11.042793 12.620336-0.70113 1.928107-1.226977 4.031496-1.40226 6.310167-0.70113 10.166381 5.433756 19.806915 15.07429 23.312565 5.78432 2.103389 12.094488 1.752824 17.703526-0.70113s9.815817-7.18658 11.919206-12.970901 1.752824-12.094488-0.70113-17.703526c-2.629237-5.609038-7.18658-9.815817-12.9709-11.919205-3.856214-1.40226-7.88771-1.752824-11.919206-1.051695l0.70113 15.424854-7.361863-13.321465z" fill="#3F3D56" p-id="14216"></path><path d="M41.768964 752.838069c2.804519-7.712427 9.289969-13.321465 17.177678-15.249572l1.928107 11.743923 3.680931-12.26977c13.321465 0.175282 23.838412 11.042794 23.663129 24.364259S77.176016 785.26532 64.029833 785.090038 40.191422 774.047244 40.366704 760.725779c0-2.629237 0.525847-5.258473 1.40226-7.88771z" fill="#57B894" p-id="14217"></path><path d="M65.607375 781.759671h-0.350565c-13.67203-0.175282-24.714824-11.568641-24.539541-25.240671 0-2.804519 0.525847-5.433756 1.402259-8.062992 2.979801-8.062992 9.640534-13.847313 17.878809-15.775419l0.876412-0.175283 1.577542 8.939405 2.804519-9.289969h0.70113c13.67203 0.175282 24.714824 11.568641 24.539541 25.240671-0.175282 13.321465-11.393358 24.364259-24.890106 24.364258zM59.647772 734.608696c-7.361862 1.928107-13.146183 7.361862-15.775419 14.37316-0.876412 2.453954-1.40226 4.907908-1.40226 7.537144-0.175282 12.795618 9.991099 23.312564 22.786717 23.487847 12.795618 0.175282 23.312564-9.991099 23.487847-22.786717 0.175282-12.445053-9.640534-22.786717-22.085587-23.487847l-4.557344 15.249573-2.453954-14.37316z" fill="#3F3D56" p-id="14218"></path><path d="M59.823055 879.567271c12.445053 4.557343 26.117083-1.928107 30.674426-14.373159 3.856214-10.516946-0.175282-22.26087-9.465251-28.220473l-2.804519 9.465252-1.928107-11.919206c-12.445053-4.557343-26.117083 1.928107-30.674427 14.37316-4.732626 12.445053 1.577542 26.117083 14.197878 30.674426-0.175282 0-0.175282 0 0 0z" fill="#57B894" p-id="14219"></path><path d="M69.113024 877.639165c-2.804519 0-5.78432-0.525847-8.413557-1.577542-6.310168-2.278672-11.218076-6.836015-14.022595-12.795618-2.804519-5.959603-3.155084-12.795618-0.876412-18.930503 2.278672-6.310168 6.836015-11.218076 12.795618-14.022595 5.959603-2.804519 12.795618-3.155084 18.930503-0.876413l0.525847 0.350565 1.40226 8.58884 2.103389-7.011298 1.051694 0.70113c9.815817 6.310168 13.847313 18.404656 9.815817 29.272167-2.278672 6.310168-6.836015 11.218076-12.795618 14.022595-3.330366 1.577542-7.011298 2.278672-10.516946 2.278672z m0-48.027388c-3.330366 0-6.660733 0.70113-9.815817 2.278671-5.609038 2.629237-9.815817 7.18658-11.919205 12.970901-2.103389 5.78432-1.752824 12.094488 0.876412 17.703526 2.629237 5.609038 7.18658 9.815817 12.9709 11.919206 5.78432 2.103389 12.094488 1.752824 17.703526-0.876412 5.609038-2.629237 9.815817-7.18658 11.919206-12.970901 3.505649-9.815817 0.175282-20.508045-8.238275-26.64293l-3.505648 11.919205-2.453954-15.074289c-2.629237-0.70113-5.083191-1.226977-7.537145-1.226977z" fill="#3F3D56" p-id="14220"></path><path d="M34.757666 919.356385c2.278672 12.9709 14.723725 21.735022 27.694625 19.45635 12.9709-2.278672 21.735022-14.723725 19.456351-27.694625-2.278672-12.9709-14.723725-21.735022-27.694625-19.45635-5.959603 1.051695-11.218076 4.206779-14.899008 8.939404l10.692229 16.125984-14.548442-8.588839c-1.051695 3.680931-1.40226 7.537145-0.70113 11.218076z" fill="#57B894" p-id="14221"></path><path d="M59.297207 936.884629c-5.083191 0-9.991099-1.577542-14.197877-4.557344-5.433756-3.856214-9.114687-9.465252-10.166382-15.950702-0.70113-3.856214-0.350565-7.88771 0.70113-11.568641l0.350565-1.051694 12.269771 7.18658-8.939405-13.496748 0.350565-0.525847c3.856214-4.907908 9.289969-8.238275 15.424855-9.289969 6.48545-1.226977 13.146183 0.350565 18.579938 4.206778 5.433756 3.856214 9.114687 9.465252 10.166382 15.950702 1.226977 6.48545-0.350565 13.146183-4.206779 18.579938-3.856214 5.433756-9.465252 9.114687-15.950702 10.166382-1.40226 0.350565-2.979801 0.350565-4.382061 0.350565z m-22.260869-30.499145c-0.876412 3.155084-0.876412 6.48545-0.350565 9.815817 1.051695 6.134885 4.382061 11.393358 9.465251 14.899007 5.083191 3.505649 11.218076 4.907908 17.177679 3.856214 6.134885-1.051695 11.393358-4.382061 14.899008-9.465252 3.505649-5.083191 4.907908-11.218076 3.856213-17.177679-1.051695-6.134885-4.382061-11.393358-9.465251-14.899007-5.083191-3.505649-11.218076-4.907908-17.177679-3.856214-5.433756 0.876412-10.341664 3.856214-13.847313 8.238275l12.445053 18.755221-17.002396-10.166382z" fill="#3F3D56" p-id="14222"></path><path d="M1436.316036 656.783293h136.720302c7.011298 0 12.620336 5.609038 12.620335 12.620336s-5.609038 12.620336-12.620335 12.620335h-136.720302c-7.011298 0-12.620336-5.609038-12.620335-12.620335 0.175282-7.011298 5.78432-12.620336 12.620335-12.620336zM851.398542 656.783293c46.099281-7.712427 91.672715-4.206779 136.720302 0 7.011298 0 12.620336 5.609038 12.620335 12.620336s-5.609038 12.620336-12.620335 12.620335c-45.047586-10.166381-92.373845-13.67203-136.720302 0-7.011298 0-12.620336-5.609038-12.620335-12.620335s5.609038-12.620336 12.620335-12.620336z" fill="#409EFF" p-id="14223"></path><path d="M602.672764 711.821979c-1.40226-23.487847-5.609038-46.274564-12.795618-68.535433-7.18658-22.26087-18.404656-42.067785-33.654228-59.245464-15.249572-17.352961-32.427251-31.024991-51.182472-41.541938-18.930503-10.341664-37.685724-17.878809-56.265663-22.260869-18.579938-4.557343-37.685724-7.18658-56.966792-8.062993-22.436152-0.876412-41.71722 0.350565-58.018487 3.856214s-31.550839 8.413557-45.923998 14.723725c-14.37316 6.310168-30.323862 13.67203-47.676823 22.085587l24.188976-130.760698c1.928107-12.620336 4.206779-21.55974 6.48545-26.818213 2.278672-5.258473 5.959603-9.465252 10.867511-12.445053 4.907908-2.979801 13.321465-4.557343 25.415954-4.557344h241.188634c13.321465 0 22.085587-3.505649 25.941801-10.692229 3.856214-7.18658 5.959603-13.847313 6.310167-20.332762 0-11.042794-2.979801-20.15748-9.114686-27.694625s-15.07429-11.218076-27.168778-11.218076H280.503643c-14.37316 0-27.168778 1.40226-38.211571 4.031496-11.042794 2.804519-19.982198 7.88771-26.64293 15.249572-6.660733 7.537145-11.393358 20.508045-14.022595 39.087983l-5.959603 39.789114-33.654228 191.408421c-3.330366 18.930503-3.856214 32.427251-1.752825 40.314961 2.103389 7.88771 8.238275 13.496748 18.054091 16.651832 9.815817 3.155084 22.436152-0.525847 37.510442-11.042794l34.705923-30.148579c11.743923-8.939404 28.04519-17.002396 48.728517-23.838412 20.85861-6.836015 41.71722-11.218076 62.751113-13.146183 29.44745-2.453954 55.038685 0 76.94899 7.361863 21.735022 7.361862 38.912701 17.528244 51.533037 30.674426 12.620336 13.146183 22.611434 31.550839 29.973296 55.213968 8.413557 28.921602 11.568641 55.915098 9.465252 81.331051-1.928107 25.415953-6.48545 48.553235-13.496748 69.587128-7.011298 21.033893-16.651832 38.386854-28.921602 51.883601-12.269771 13.496748-27.168778 23.137282-45.047586 29.096885-17.703526 5.78432-36.809312 8.764122-57.317357 8.764122-21.384457 0.350565-40.314961-2.103389-56.79151-7.011298-16.476549-4.907908-32.251969-12.620336-47.326258-22.961999-15.07429-10.341664-28.220472-21.55974-39.438549-33.654228-11.218076-12.094488-21.033893-26.292366-29.622732-43.11948-8.588839-16.651832-16.125984-26.292366-22.786717-29.096884-14.022595-5.083191-26.292366-2.979801-36.458747 6.310168-10.166381 9.289969-14.37316 21.209175-12.620335 35.582334 1.752824 14.37316 7.537145 28.921602 16.827114 43.470045s19.806915 28.04519 31.375556 40.314961c11.568641 12.269771 27.519343 24.714824 47.676823 37.335159 20.332763 12.620336 42.41835 22.436152 66.607327 29.272167 24.188976 6.836015 51.007189 9.991099 80.454638 8.939404 30.499144-0.525847 59.946594-5.78432 88.167066-15.249572 28.395755-9.640534 51.007189-22.961999 68.184869-39.964396 17.002396-17.002396 30.499144-36.809312 40.490243-59.771311 9.815817-22.786717 16.827114-49.429647 20.85861-79.753509 2.629237-22.611434 3.330366-45.923999 1.928107-69.411845z" fill="#409EFF" p-id="14224"></path><path d="M391.983274 957.392674c-25.591236 0-49.254365-3.155084-70.638823-9.289969-24.188976-6.836015-46.625128-16.827114-66.782608-29.44745-20.332763-12.620336-36.458747-25.240671-47.852106-37.510442-11.568641-12.269771-22.085587-25.941801-31.550839-40.490243s-15.07429-29.44745-17.002396-43.820609c-1.928107-14.723725 2.453954-26.818213 12.795618-36.458747 10.516946-9.465252 22.961999-11.743923 37.335159-6.48545 7.011298 2.804519 14.548442 12.445053 23.312564 29.447449 8.413557 16.476549 18.404656 31.024991 29.44745 42.768915 11.042794 11.919206 24.364259 23.137282 39.263266 33.478946 14.899007 10.341664 30.674427 18.054091 46.975693 22.961999 16.301267 4.907908 35.23177 7.18658 56.616227 7.011297 20.332763 0 39.438548-2.979801 56.966793-8.764121s32.602533-15.424855 44.697021-28.921603c12.094488-13.321465 21.735022-30.674427 28.74632-51.533036 7.011298-20.85861 11.568641-44.171174 13.496748-69.411846 1.928107-25.240671-1.226977-52.409449-9.465252-80.980486-7.361862-23.487847-17.352961-41.892503-29.622732-54.863403-12.445053-12.9709-29.622732-23.137282-51.182472-30.499144-21.55974-7.361862-47.326258-9.815817-76.598425-7.361862-20.85861 1.752824-42.067785 6.134885-62.57583 12.9709-20.683328 6.836015-36.984594 14.899007-48.553235 23.838412l-34.705923 30.148579c-15.249572 10.692229-28.220472 14.37316-38.211571 11.218076-10.166381-3.155084-16.476549-9.114687-18.755221-17.352961-2.278672-8.062992-1.577542-21.735022 1.752824-40.665526l33.654228-191.233139 5.959603-39.789113c2.629237-18.579938 7.537145-31.901404 14.37316-39.438549 6.836015-7.537145 15.950702-12.795618 26.993495-15.600137 11.042794-2.804519 24.013694-4.206779 38.386854-4.206778H562.708368c12.269771 0 21.55974 3.856214 27.869907 11.568641 6.134885 7.537145 9.289969 17.002396 9.28997 28.220472-0.350565 6.48545-2.453954 13.496748-6.310168 20.683328-4.031496 7.361862-12.9709 11.218076-26.642931 11.218076H325.55123c-11.919206 0-20.15748 1.40226-24.890106 4.382061-4.732626 2.979801-8.238275 7.011298-10.516947 12.094488-2.278672 5.083191-4.557343 14.022595-6.48545 26.64293L259.995598 531.105786c16.827114-8.062992 32.251969-15.249572 46.274564-21.384458 14.37316-6.310168 29.973297-11.218076 46.099281-14.723724 16.301267-3.505649 35.9329-4.732626 58.193769-3.856214 19.456351 0.876412 38.737419 3.680931 57.142075 8.062992 18.579938 4.557343 37.510442 12.094488 56.440945 22.436152 18.930503 10.341664 36.283465 24.364259 51.533036 41.71722s26.642931 37.335159 33.829511 59.596029c7.18658 22.26087 11.568641 45.398151 12.795618 68.710715 1.40226 23.312564 0.70113 46.975693-1.928107 70.112975-4.031496 30.323862-11.042794 57.142075-20.85861 80.104074-9.815817 22.786717-23.487847 43.11948-40.665526 59.946594-17.177679 17.002396-40.139678 30.499144-68.36015 40.139678s-58.018487 14.723725-88.517631 15.424855h-9.991099z m-198.069155-204.20404c-8.062992 0-15.249572 2.979801-21.735022 8.764122-9.991099 9.114687-14.022595 20.85861-12.269771 34.881205 1.752824 14.197877 7.361862 28.74632 16.651832 43.11948 9.289969 14.37316 19.806915 28.04519 31.375556 40.139678 11.393358 12.269771 27.519343 24.714824 47.501541 37.335159 20.15748 12.445053 42.41835 22.26087 66.432044 29.272167 24.013694 6.836015 50.831907 9.815817 80.104074 8.939404 30.323862-0.525847 59.771311-5.78432 87.991783-15.249572 28.04519-9.465252 50.831907-22.961999 67.834304-39.613831 17.002396-16.827114 30.499144-36.809312 40.31496-59.420746 9.815817-22.611434 16.827114-49.429647 20.85861-79.578227 2.629237-22.961999 3.330366-46.449846 1.928107-69.76241-1.40226-23.312564-5.609038-46.274564-12.795618-68.36015-7.18658-22.085587-18.404656-41.892503-33.478945-58.894899-15.07429-17.177679-32.251969-31.024991-51.00719-41.366656-18.755221-10.341664-37.685724-17.703526-56.09038-22.260869-18.404656-4.557343-37.510442-7.18658-56.966792-8.062992-22.26087-0.876412-41.71722 0.350565-57.843204 3.856213s-31.550839 8.413557-45.748717 14.548443c-14.37316 6.310168-30.323862 13.67203-47.676823 22.085587l-1.577541 0.70113 24.364258-132.513523c1.928107-12.620336 4.206779-21.735022 6.660733-26.993496 2.453954-5.433756 6.134885-9.640534 11.218076-12.795618 4.907908-3.155084 13.67203-4.557343 25.766518-4.557343h241.188634c12.9709 0 21.384457-3.505649 25.065389-10.341664 3.856214-7.011298 5.78432-13.67203 6.134885-19.982198 0-10.692229-2.979801-19.806915-8.939404-26.993495-5.78432-7.18658-14.723725-10.867511-26.467648-10.867511H299.434147c-14.197877 0-26.993495 1.40226-38.036289 4.031496-10.867511 2.629237-19.631633 7.712427-26.117083 15.07429-6.48545 7.361862-11.218076 20.332763-13.847313 38.562136l-5.959603 39.789113-33.654228 191.23314c-3.330366 18.755221-3.856214 32.251969-1.752824 39.964395 2.103389 7.537145 7.88771 12.9709 17.528243 16.125985 9.640534 2.979801 21.910305-0.70113 36.63403-10.867512l34.53064-30.148579c11.743923-9.114687 28.220472-17.177679 49.079083-24.013694 20.683328-6.836015 41.892503-11.393358 63.101677-13.146183 29.44745-2.453954 55.38925 0.175282 77.299555 7.537145 21.735022 7.361862 39.263266 17.703526 51.883602 30.849709s22.786717 31.726121 30.148579 55.564533c8.413557 28.921602 11.568641 56.265662 9.640534 81.681616-1.928107 25.415953-6.660733 48.9038-13.67203 69.937692s-16.827114 38.562136-29.096885 52.234167c-12.269771 13.496748-27.519343 23.487847-45.398151 29.272167-17.703526 5.78432-37.159877 8.764122-57.49264 8.764122-21.384457 0.350565-40.665526-2.103389-56.966792-7.011298-16.476549-4.907908-32.427251-12.795618-47.50154-23.137282-15.07429-10.341664-28.395755-21.735022-39.613831-33.654228-11.218076-11.919206-21.209175-26.467648-29.798015-43.294762-8.413557-16.476549-15.950702-26.117083-22.436152-28.746319-5.083191-1.752824-9.640534-2.629237-14.022595-2.629237z" fill="#3F3D56" p-id="14225"></path><path d="M1432.28454 591.928792m-9.465251 0a9.465252 9.465252 0 1 0 18.930503 0 9.465252 9.465252 0 1 0-18.930503 0Z" fill="#409EFF" p-id="14226"></path><path d="M1556.033941 576.153372m-9.465251 0a9.465252 9.465252 0 1 0 18.930503 0 9.465252 9.465252 0 1 0-18.930503 0Z" fill="#409EFF" p-id="14227"></path><path d="M1201.087005 950.206094c-5.609038 0-9.114687-1.226977-11.042793-3.330367-4.206779-5.258473 0.876412-15.07429 8.062992-28.746319 11.218076-21.735022 26.818213-51.357754 11.568641-78.877097-4.382061-8.062992-9.465252-12.269771-15.77542-13.496748-14.899007-2.804519-39.438548 11.218076-82.03218 46.975693l-1.051695-1.402259c43.11948-36.108182 68.009586-50.130777 83.609723-47.326258 6.836015 1.226977 12.269771 5.78432 17.002396 14.37316 15.600137 28.220472 0 58.369052-11.568641 80.454638-6.48545 12.620336-11.743923 22.611434-8.238274 26.818213 4.382061 5.258473 22.085587 2.979801 57.843204-7.18658l0.525847 1.752825c-23.838412 6.660733-39.263266 9.991099-48.9038 9.991099zM1090.65907 990.696337c-1.226977 0-2.453954 0-3.856214-0.175283-13.847313-1.577542-21.910305-9.114687-27.168778-14.197877-3.155084-2.979801-5.609038-5.258473-7.537145-4.907908-1.577542 0.350565-3.330366 2.629237-5.433755 6.836015l-1.577542-0.70113c2.278672-4.907908 4.382061-7.361862 6.660733-7.88771 2.804519-0.525847 5.433756 1.928107 9.114686 5.433756 5.433756 5.258473 12.9709 12.269771 26.292366 13.67203 7.361862 0.876412 13.321465-0.876412 17.528244-4.907908 8.413557-8.238275 7.18658-24.013694 7.18658-24.188977l1.752824-0.175282c0 0.70113 1.40226 16.827114-7.712427 25.591236-4.031496 3.856214-9.114687 5.609038-15.249572 5.609038z" fill="#3F3D56" p-id="14228"></path><path d="M886.45503 530.404656L843.160268 573.524136c-3.505649 3.505649-9.114687 3.680931-12.620336 0.175282l-0.175282-0.175282c-3.505649-3.505649-3.680931-9.114687-0.175283-12.620336l0.175283-0.175282 43.11948-43.11948c3.505649-3.505649 9.114687-3.680931 12.620335-0.175282l0.175282 0.175282c3.505649 3.505649 3.680931 9.114687 0.175283 12.795618zM972.693989 555.820609c-3.505649-3.505649-3.505649-9.289969 0-12.795618l0.175283-0.175282c3.505649-3.505649 9.114687-3.330366 12.620335 0.175282l43.11948 43.11948 0.175282 0.175283c3.505649 3.505649 3.330366 9.114687-0.175282 12.620335l-0.175283 0.175282c-3.505649 3.505649-9.114687 3.330366-12.620335-0.175282l-43.11948-43.11948z" fill="#409EFF" p-id="14229"></path></svg>