<svg class="icon" viewBox="0 0 1024 1024" xmlns="http://www.w3.org/2000/svg" width="200" height="200"><defs><style/></defs><path d="M512.002 0C229.382 0 .237 229.145.237 511.765.237 685.839 87.185 839.597 220 932.046c25.884-90.133 91.287-158.031 180.288-189.033a305.891 305.891 0 0111.245-3.682c.6-.183 1.19-.383 1.795-.562a325.359 325.359 0 0127.058-6.868c.933-.196 1.874-.37 2.807-.558a344.82 344.82 0 0114.722-2.62 350.905 350.905 0 0110.429-1.453c1.254-.158 2.499-.33 3.757-.47a354.783 354.783 0 0114.168-1.359h51.705c4.757.354 9.454.82 14.123 1.35 1.32.154 2.628.333 3.94.5a344.791 344.791 0 0114.393 2.099c3.415.574 6.806 1.2 10.167 1.87 1.149.229 2.315.441 3.456.683a327.798 327.798 0 0126.446 6.709c1.067.317 2.116.662 3.178.991 3.224 1 6.426 2.045 9.592 3.14 89.284 30.882 154.903 98.838 180.9 189.147 132.722-92.466 219.603-246.166 219.603-420.174C1023.763 229.14 794.622 0 512.002 0zm0 725.32c-130.373 0-236.491-103.56-240.743-232.896-.146-.092-.292-.167-.438-.259-4.993-93.353 43.813-165.065 105.598-206.971.358-.246.703-.5 1.062-.741 2.357-1.583 4.747-3.082 7.138-4.578.937-.587 1.853-1.199 2.799-1.77 38.04-23.106 79.896-35.18 116.717-34.48 2.62-.087 5.23-.2 7.871-.2 2.507 0 4.977.113 7.468.188 28.237-.487 59.406 6.534 89.563 20.212a241.023 241.023 0 0161.725 39.377c50.227 43.089 86.59 107.847 82.188 188.963l-.2.117c-4.186 129.399-110.329 233.039-240.748 233.039z" fill="#A0D9F6"/><path d="M376.414 285.194c.354-.242.704-.504 1.062-.741-.358.241-.703.5-1.062.74zm143.051-41.581c-2.49-.075-4.96-.187-7.467-.187-2.64 0-5.252.112-7.871.2 2.523.05 5.043.104 7.517.27a156.266 156.266 0 017.821-.283zM472.28 386.726c-46.308 81.238-124.764 153.205-201.025 105.698 4.253 129.336 110.37 232.897 240.744 232.897 130.42 0 236.566-103.64 240.748-233.039-63.725 39.66-230.815-17.875-280.467-105.556zm-87.664-106.85c.937-.584 1.857-1.2 2.799-1.77-.95.574-1.862 1.186-2.8 1.77zm224.413-16.051a260.297 260.297 0 0161.726 39.377 241.14 241.14 0 00-61.726-39.377z" fill="#FCE9EA"/><path d="M453.975 729.36zm156.523 9.296c1.067.317 2.116.662 3.178.991-1.062-.329-2.111-.674-3.178-.99zm-170.117-6.755c.933-.196 1.874-.37 2.807-.558-.937.187-1.878.362-2.807.558zm-28.854 7.43c.6-.183 1.192-.383 1.795-.562-.603.179-1.195.379-1.795.562zm154.638-10.629zm57.098 14.086c.733.254 1.458.512 2.183.77a119.433 119.433 0 01-10.458 22.11c17.142 26.397 12.84 141.49-12.919 123.398l-45.096-31.756-44.98-31.64 2.958-2.078c-.983.025-1.966.075-2.957.075-1.033 0-2.053-.054-3.078-.079l2.961 2.082-44.98 31.64-45.095 31.756c-25.9 18.125-30.19-97.405-12.878-123.535a119.287 119.287 0 01-10.357-21.915c.57-.204 1.137-.408 1.711-.603-89 30.998-154.404 98.9-180.287 189.033 82.82 57.653 183.457 91.483 292.003 91.483 108.616 0 209.316-33.876 292.161-91.59-25.984-90.31-91.603-158.27-180.892-189.151zm-42.667-11.524c1.149.229 2.315.441 3.456.683-1.14-.242-2.303-.458-3.456-.683zm-112.257-3.99c1.253-.154 2.499-.33 3.756-.47-1.257.14-2.503.312-3.756.47zm83.753-.483c1.32.15 2.628.333 3.94.5-1.312-.163-2.616-.342-3.94-.5z" fill="#CFE07D"/><path d="M408.929 765.527c3.44-5.19 7.73-6.872 12.877-3.252l45.096 31.756 42.018 29.557c1.029.025 2.045.08 3.078.08.991 0 1.974-.05 2.957-.076l42.022-29.561 45.096-31.756c5.173-3.653 9.475-1.912 12.92 3.39a119.308 119.308 0 0010.457-22.111l-2.182-.77a307.359 307.359 0 00-9.592-3.14c-1.062-.33-2.111-.675-3.178-.992a327.354 327.354 0 00-26.446-6.71c-1.14-.24-2.307-.453-3.456-.682a331.806 331.806 0 00-24.56-3.97c-1.312-.166-2.62-.35-3.94-.5a367.756 367.756 0 00-14.123-1.349h-51.705A354.783 354.783 0 00472.1 726.8c-1.258.142-2.503.317-3.757.47a337.678 337.678 0 00-25.15 4.074c-.938.187-1.88.362-2.808.558a328.678 328.678 0 00-27.058 6.868c-.604.179-1.196.379-1.795.562a298.158 298.158 0 00-12.957 4.285 119.362 119.362 0 0010.354 21.911z" fill="#FEFEFE"/><path d="M602.073 762.275l-45.096 31.756-42.022 29.561-2.957 2.078 44.98 31.64 45.095 31.756c25.76 18.092 30.061-97.001 12.92-123.397-3.44-5.306-7.743-7.047-12.92-3.394zm-180.267 0c-5.148-3.62-9.437-1.937-12.877 3.252-17.313 26.13-13.024 141.66 12.877 123.535l45.096-31.756 44.98-31.64-2.962-2.082-42.018-29.557-45.096-31.752z" fill="#7EA701"/><path d="M472.279 386.726c49.652 87.68 216.742 145.217 280.467 105.556l.2-.117c4.402-81.116-31.965-145.874-82.188-188.963a260.514 260.514 0 00-61.726-39.377c-30.156-13.678-61.326-20.7-89.563-20.212-2.627.046-5.247.108-7.82.283 8.337 29.52-8.268 88.264-39.37 142.83z" fill="#F7B970"/><path d="M472.279 386.726c31.102-54.57 47.711-113.31 39.37-142.83a148.932 148.932 0 00-7.518-.27c-36.82-.7-78.677 11.373-116.717 34.48-.942.57-1.862 1.186-2.8 1.77-2.39 1.495-4.78 2.994-7.138 4.577-.358.241-.703.5-1.062.74-61.784 41.907-110.59 113.62-105.597 206.972.146.092.292.167.437.259 76.261 47.507 154.717-24.46 201.025-105.698z" fill="#FBCE77"/></svg>