<svg class="icon" viewBox="0 0 1026 1024" xmlns="http://www.w3.org/2000/svg" width="200.391" height="200"><defs><style/></defs><path d="M737.554 530.828c-.17 10.784-.366 21.784-.366 32.954 0 17.919-1.695 34.72-4.861 50.419 5.519-25.474 6.99-52.547 5.227-83.373zM296.81 563.366c0-8.205-.113-16.277-.238-24.212a579.016 579.016 0 00.238 24.212zm249.114 216.002a3.111 3.111 0 00.97-.184c-.704.088-1.412.138-2.116.221l1.146-.037zm185.542-161.31c.233-.987.466-1.983.687-2.978-.208 1.008-.466 1.978-.687 2.978z" fill="#A0D9F6"/><path d="M514.164.033C231.52.033 2.362 229.197 2.362 511.84c0 188.94 102.42 353.962 254.749 442.628 17.04-47.953 45.937-86.055 81.907-114.232 22.437-17.735 48.119-31.946 76.42-42.096-59.535-51.84-61.23-65.946-40.759-63.997-29.626-23.066-53.217-54.658-66.367-94.768 4.761 15.048 11.209 29.414 19.901 43.304-194.655-187.691-50.456-538.492 186.076-414.226v-.063l.112.12a263.586 263.586 0 0111.046-5.48c.787-.367 1.566-.675 2.35-1.033a249.46 249.46 0 018.608-3.77c.171-.07.338-.125.508-.191 151.672-61.606 263.7 77.025 260.106 225.78-1.145 71.157-28.589 144.2-90.532 197.564.191-.342.354-.68.545-1.02-13.457 22.445-30.805 41.117-50.743 56.053 10.213 3.365 5.952 19.997-28.547 61.972h-.267c28.144 10.176 53.692 24.354 76.009 42.039 34.137 26.802 61.918 62.538 79.178 107.18 145.995-90.153 243.312-251.588 243.312-435.76 0-282.647-229.159-511.81-511.81-511.81z" fill="#A0D9F6"/><path d="M703.484 840.42c35.14 27.843 62.247 64.33 79.074 107.246.033-.02.07-.041.1-.066-17.252-44.646-45.033-80.382-79.174-107.18zM544.78 779.404c.704-.083 1.412-.133 2.116-.22 10.634-3.17 88.97-49.511 109.4-42.78 19.935-14.936 37.282-33.608 50.744-56.054 11.458-20.555 19.413-40.897 24.428-62.297.22-1 .479-1.97.687-2.978.067-.292.113-.588.175-.875 3.166-15.702 4.86-32.504 4.86-50.419 0-11.17.197-22.17.367-32.954-.783-13.678-2.182-28.09-4.144-43.43-96.576 5.903-165.05-28.218-219.121-82.643C438.376 456.47 366.12 486.22 298.47 487.4c-1.008 18.276-1.724 35.436-1.89 51.751.124 7.935.233 16.01.237 24.212.887 27.631 4.12 52.672 11.504 76.004 13.149 40.11 36.74 71.702 66.366 94.769 31.718 3.015 116.652 44.554 122.25 44.05 19.438 2.549 28.585 1.812 47.844 1.22zm-205.763 60.831c-35.97 28.177-64.868 66.28-81.907 114.232l.017.012c16.598-45.978 44.791-84.917 81.89-114.244z" fill="#FCE9EA"/><path d="M703.484 840.42c-22.317-17.686-47.865-31.86-76.009-42.039l-211.895-.116a1.945 1.945 0 00-.146-.125c-28.301 10.154-53.983 24.365-76.42 42.096-37.1 29.327-65.293 68.27-81.89 114.244 75.538 43.967 163.342 69.166 257.036 69.166 98.429 0 190.357-27.819 268.394-75.98-16.819-42.917-43.93-79.407-79.07-107.247z" fill="#CFE07D"/><path d="M415.584 798.265l211.895.116h.267c34.5-41.976 38.764-58.607 28.547-61.972-20.425-6.731-98.766 39.61-109.4 42.78a3.149 3.149 0 01-.97.183l-1.142.037c-19.259.592-28.406 1.329-47.852-1.216-5.594.504-90.529-41.039-122.25-44.05-20.476-1.95-18.776 12.158 40.76 63.997a1.945 1.945 0 01.145.125z" fill="#ED7667"/><path d="M536.41 258.227c.17-.07.337-.125.508-.191l-.508.191zM296.575 539.154c.171-16.314.883-33.479 1.891-51.75 67.65-1.184 139.906-30.935 215.823-82.645V268.453c-236.532-124.266-380.727 226.53-186.072 414.222-8.692-13.895-15.14-28.256-19.9-43.304-7.385-23.333-10.617-48.374-11.504-76.005a565.074 565.074 0 01-.238-24.212zM525.447 263.03c.787-.367 1.566-.675 2.35-1.033-.784.358-1.559.662-2.35 1.033zm181.044 418.345c61.943-53.363 89.387-126.406 90.532-197.562-1.699 70.281-29.189 142.82-90.532 197.562z" fill="#FBCE77"/><path d="M514.289 404.755c54.07 54.425 122.55 88.55 219.121 82.644 1.962 15.34 3.365 29.751 4.144 43.43 1.762 30.821.292 57.894-5.227 83.376-.062.287-.108.583-.175.875-.22.995-.454 1.99-.687 2.978-5.015 21.4-12.97 41.742-24.428 62.297-.192.342-.354.679-.546 1.02 61.343-54.741 88.833-127.28 90.532-197.562 3.59-148.752-108.434-287.387-260.105-225.781-.171.07-.338.124-.508.191-2.854 1.166-5.732 2.462-8.61 3.77-.783.358-1.562.662-2.349 1.032a266.19 266.19 0 00-11.046 5.482l-.112-.121v136.37z" fill="#F7B970"/></svg>