<svg class="icon" viewBox="0 0 1025 1024" xmlns="http://www.w3.org/2000/svg" width="200.195" height="200"><defs><style/></defs><path d="M513.888 0C231.138 0 1.892 229.25 1.892 512c0 174.154 86.987 327.98 219.862 420.475 25.938-90.338 91.559-158.35 180.838-189.338a310.087 310.087 0 0110.029-3.287c.954-.296 1.904-.608 2.867-.9a328.042 328.042 0 0126.495-6.742c1.205-.254 2.425-.479 3.638-.72a332.75 332.75 0 0124.312-3.946c1.38-.175 2.75-.367 4.134-.525a357.917 357.917 0 0114.079-1.359h18.546c1.77.121 3.658.121 5.55 0h1.654c-130.471 0-236.663-103.67-240.858-233.12-.146-.092-.292-.167-.438-.259-8.296-155.104 131.787-250.454 233.392-248.537 2.629-.088 5.254-.2 7.904-.2 2.517 0 5.004.112 7.496.187 29.391-.5 61.937 7.084 93.212 21.863a241.125 241.125 0 0157.346 37.083c50.608 43.075 87.367 108.058 83.004 189.6l-.196.117c-4.12 129.52-110.337 233.262-240.862 233.262h25.983a356.083 356.083 0 0114.058 1.359c1.4.158 2.78.35 4.171.529a309.825 309.825 0 0114.359 2.112c3.3.559 6.57 1.167 9.82 1.817 1.255.25 2.513.479 3.755.746a327.792 327.792 0 0126.379 6.712c1.033.313 2.054.646 3.087.967a310.881 310.881 0 019.763 3.204c89.25 30.963 154.896 98.954 180.912 189.27 132.788-92.503 219.709-246.278 219.709-420.37 0-282.75-229.25-512-512.005-512z" fill="#F08E83"/><path d="M754.754 492.392C691 532.183 523.821 474.629 474.146 386.9c-46.325 81.263-124.821 153.238-201.113 105.633 4.196 129.45 110.384 233.121 240.859 233.121 130.52 0 236.737-103.742 240.862-233.262zM614.6 265.592a260.73 260.73 0 0157.346 37.083 241.158 241.158 0 00-57.346-37.083zm-93.212-21.863c-2.496-.075-4.98-.187-7.496-.187-2.65 0-5.275.112-7.904.2 2.533.05 5.066.104 7.554.275 2.575-.18 5.208-.246 7.846-.288z" fill="#FCE9EA"/><path d="M441.98 732.204c1.203-.254 2.424-.479 3.637-.72-1.213.241-2.434.47-3.638.72zm13.587-2.558zm98.362-2.633c1.4.158 2.78.35 4.171.529-1.392-.18-2.77-.371-4.17-.53zm14.013 1.904zm-155.325 10.929c.954-.296 1.904-.609 2.866-.9-.962.291-1.908.604-2.866.9zm169.666-8.375c1.25.25 2.513.483 3.754.746-1.241-.267-2.5-.5-3.754-.746zm30.134 7.458c1.033.313 2.054.646 3.087.967-1.029-.321-2.05-.654-3.087-.967zm12.85 4.171l2.137.758a119.48 119.48 0 01-10.475 22.159c17.146 26.404 12.842 141.537-12.925 123.341l-45.116-31.654-45-31.654 2.95-2.08c-.984.026-1.963.076-2.95.076-1.03 0-2.046-.054-3.071-.08l2.95 2.084-45 31.654-45.117 31.654c-25.912 18.23-30.204-97.329-12.883-123.47a119.583 119.583 0 01-10.38-21.975c.734-.263 1.463-.521 2.196-.775-89.279 30.991-154.9 99.004-180.837 189.337C304.6 990.155 405.283 1024 513.883 1024c108.667 0 209.405-33.887 292.292-91.63-26.012-90.316-91.658-158.312-180.908-189.27zm-155.338-15.563c1.38-.175 2.75-.366 4.134-.525-1.388.159-2.755.35-4.134.526z" fill="#CFE07D"/><path d="M410.77 765.888c3.442-5.196 7.734-6.88 12.884-3.259l45.117 31.654 42.046 29.688c1.025.025 2.041.079 3.07.079.988 0 1.963-.05 2.95-.075l42.055-29.692 45.116-31.654c5.175-3.654 9.475-1.912 12.925 3.388a119.48 119.48 0 0010.475-22.159l-2.137-.758a318.363 318.363 0 00-9.763-3.204c-1.033-.321-2.054-.654-3.087-.967a327.792 327.792 0 00-26.38-6.712c-1.245-.263-2.508-.496-3.754-.746a349.517 349.517 0 00-14.341-2.554 353.654 353.654 0 00-9.838-1.375c-1.391-.18-2.77-.371-4.17-.53a356.083 356.083 0 00-14.059-1.358h-27.637c-1.892.121-3.78.121-5.55 0h-18.546a357.917 357.917 0 00-14.08 1.359c-1.387.158-2.754.35-4.133.525a343.517 343.517 0 00-14.362 2.108c-3.342.567-6.659 1.179-9.95 1.837-1.213.242-2.43.467-3.638.721a328.042 328.042 0 00-26.496 6.742c-.962.287-1.908.604-2.866.9a313.488 313.488 0 00-12.225 4.062 119.333 119.333 0 0010.375 21.98z" fill="#FEFEFE"/><path d="M604.008 762.625l-45.116 31.654-42.055 29.692-2.95 2.079 45 31.654 45.117 31.654c25.767 18.196 30.071-96.937 12.925-123.341-3.446-5.304-7.746-7.046-12.92-3.392zm-180.354 0c-5.15-3.62-9.442-1.938-12.883 3.258-17.321 26.138-13.03 141.7 12.883 123.471l45.117-31.654 45-31.654-2.95-2.084-42.046-29.687-45.12-31.65z" fill="#7EA701"/><path d="M474.146 386.9C523.82 474.63 691 532.183 754.754 492.392l.196-.117c4.362-81.546-32.392-146.53-83.004-189.6a260.533 260.533 0 00-57.346-37.083c-31.275-14.78-63.82-22.363-93.213-21.863-2.637.046-5.27.108-7.85.283 8.342 29.534-8.27 88.3-39.391 142.888z" fill="#F7B970"/><path d="M474.146 386.9c31.12-54.587 47.733-113.354 39.391-142.887a155.22 155.22 0 00-7.554-.276c-101.6-1.916-241.683 93.434-233.391 248.538.146.092.291.167.437.258 76.296 47.604 154.792-24.37 201.117-105.633z" fill="#FBCE77"/></svg>