<svg class="icon" viewBox="0 0 1024 1024" xmlns="http://www.w3.org/2000/svg" width="200" height="200"><defs><style/></defs><path d="M512.525.008C229.809.008.587 229.23.587 511.946c0 174.133 86.977 327.943 219.836 420.424 25.993-90.523 91.847-158.623 181.42-189.51a331.426 331.426 0 018.557-2.809c1.366-.429 2.716-.87 4.091-1.283a323.077 323.077 0 0112.803-3.562l.254-.058a327.102 327.102 0 0112.91-2.979c1.384-.292 2.78-.554 4.167-.83a341.275 341.275 0 0114.16-2.511 346.916 346.916 0 019.683-1.354c1.425-.18 2.841-.38 4.274-.542a355.21 355.21 0 0114.04-1.354h18.54c1.891.113 3.778.113 5.67 0h1.533c-133.117 0-241.029-107.912-241.029-241.029 0-1.266.075-2.516.096-3.774-1.312-152.378 141.516-244.179 241.17-237.376 102.271-6.965 250.007 89.398 241.383 248.353-.254.159-.529.28-.783.434-4.045 129.576-110.286 233.392-240.841 233.392h25.98c4.724.354 9.395.82 14.036 1.354 1.437.163 2.858.363 4.283.542a359.614 359.614 0 0114.402 2.124c3.154.534 6.278 1.117 9.386 1.734 1.413.279 2.837.545 4.237.841a327.627 327.627 0 0112.59 2.904c.28.07.567.137.846.212a318.461 318.461 0 0112.428 3.458c1.47.438 2.912.913 4.366 1.367 2.754.866 5.49 1.758 8.207 2.691 89.606 30.85 155.498 98.921 181.536 189.427 132.743-92.497 219.636-246.237 219.636-420.286.008-282.72-229.21-511.938-511.93-511.938z" fill="#A6D4AE"/><path d="M753.366 492.186c-70.674 43.161-216.244-31.63-240.604-134.709-24.326 103.45-170.645 178.445-240.912 134.271a243.574 243.574 0 01-.258-10.978c-.021 1.263-.096 2.513-.096 3.775 0 133.117 107.912 241.029 241.029 241.029 130.555.004 236.796-103.812 240.841-233.388z" fill="#FCE9EA"/><path d="M623.29 742.805c.917.317 1.825.646 2.734.967a119.59 119.59 0 01-10.45 22.122c17.245 26.318 12.933 141.562-12.943 123.36l-45.112-31.65-44.994-31.65 2.954-2.084c-.983.025-1.963.075-2.954.075-1.033 0-2.05-.054-3.075-.079l2.954 2.087-44.994 31.65-45.112 31.65c-25.809 18.224-30.167-97.3-12.877-123.45a119.715 119.715 0 01-10.374-21.96c.93-.334 1.858-.667 2.791-.988-89.572 30.888-155.426 98.992-181.42 189.51 82.85 57.672 183.52 91.514 292.103 91.514 108.67 0 209.42-33.896 292.302-91.651-26.03-90.502-91.927-158.572-181.532-189.423zm-154.822-15.331c1.425-.18 2.841-.38 4.274-.542-1.433.163-2.845.363-4.274.542zm-14.39 2.12zm-13.62 2.575c1.384-.292 2.78-.554 4.167-.83-1.387.276-2.783.538-4.166.83zm-13.164 3.033l.254-.058c-.084.025-.171.041-.254.058zm153.323-3.87c1.412.279 2.837.545 4.237.841-1.4-.296-2.825-.562-4.237-.841zm30.104 7.415c1.47.438 2.912.913 4.366 1.367-1.454-.454-2.9-.93-4.366-1.367zm-13.277-3.67c.279.07.566.137.845.212-.279-.075-.562-.141-.845-.212zM410.4 740.05c1.366-.429 2.716-.87 4.091-1.283-1.37.413-2.725.854-4.091 1.283zm142.145-13.119c1.437.163 2.858.363 4.283.542-1.425-.18-2.846-.38-4.283-.542zm13.953 1.896z" fill="#F08E83"/><path d="M409.425 765.802c3.437-5.199 7.724-6.886 12.878-3.262l45.11 31.65 42.037 29.68c1.025.025 2.042.08 3.075.08.991 0 1.97-.05 2.954-.076l42.04-29.683 45.112-31.65c5.178-3.646 9.49-1.921 12.944 3.353a119.465 119.465 0 0010.449-22.122c-.913-.321-1.821-.65-2.733-.967a325.844 325.844 0 00-8.208-2.691c-1.454-.454-2.895-.93-4.366-1.367a320.515 320.515 0 00-12.428-3.458c-.279-.075-.566-.141-.845-.212a329.443 329.443 0 00-12.59-2.904c-1.4-.296-2.825-.562-4.237-.841a336.48 336.48 0 00-23.79-3.858c-1.428-.18-2.849-.38-4.282-.542a355.76 355.76 0 00-14.036-1.354h-27.513a47.678 47.678 0 01-5.67 0h-18.54a356.74 356.74 0 00-14.04 1.354c-1.433.163-2.85.363-4.274.542-3.245.412-6.478.858-9.682 1.354a346.3 346.3 0 00-14.16 2.512c-1.388.275-2.788.537-4.167.829a327.102 327.102 0 00-12.911 2.979l-.254.058a337.959 337.959 0 00-12.803 3.562c-1.375.413-2.729.854-4.09 1.283a316.086 316.086 0 00-8.558 2.808c-.933.321-1.862.654-2.792.988a119.515 119.515 0 0010.37 21.955z" fill="#FEFEFE"/><path d="M602.63 762.54l-45.11 31.65-42.041 29.684-2.954 2.084 44.994 31.65 45.112 31.65c25.88 18.202 30.188-97.042 12.944-123.36-3.45-5.278-7.762-7.003-12.944-3.358zm-180.327 0c-5.15-3.624-9.44-1.937-12.878 3.262-17.29 26.147-12.932 141.675 12.878 123.452l45.11-31.65 44.995-31.65-2.954-2.088-42.036-29.68-45.115-31.646z" fill="#CFE07D"/><path d="M512.762 357.477V243.4c-99.654-6.803-242.482 84.994-241.17 237.376.029 3.637.062 7.274.258 10.977 70.267 44.166 216.586-30.825 240.912-134.275z" fill="#ADBE20"/><path d="M512.762 357.477c24.36 103.08 169.93 177.87 240.604 134.709.255-.154.53-.275.784-.434 8.62-158.955-139.117-255.318-241.383-248.353v114.078z" fill="#7EA701"/></svg>