<svg class="icon" viewBox="0 0 1024 1024" xmlns="http://www.w3.org/2000/svg" width="200" height="200"><defs><style/></defs><path d="M310.957 662.252zm-3.885-9.41zm-3.158-8.87c.22.67.471 1.327.695 1.993-.232-.662-.472-1.323-.695-1.992zm235.326 137.64a3.087 3.087 0 00.963-.182c-.699.086-1.401.136-2.104.219l1.141-.038zM315.842 672.418zM292.045 564.37a1501.735 1501.735 0 00-.17-17.436c-.028 5.926.03 11.737.17 17.436zm437.35-30.041c-.17 10.91-.377 22.056-.377 33.368 0 21.507-2.496 41.373-7.022 59.66 7.402-28.263 9.477-58.218 7.398-93.028z" fill="#002738"/><path d="M507.843 8.435C227.391 8.435.005 235.702.005 516.158c0 187.542 101.609 351.25 252.745 439.2.422-1.17.819-2.36 1.257-3.53 16.915-45.563 44.762-81.977 79.184-109.175 22.445-17.887 48.2-32.199 76.61-42.399-58.996-51.403-60.74-65.43-40.49-63.533a193.758 193.758 0 01-47.121-53.016c.396.65.74 1.31 1.144 1.963C130.221 499.465 273.1 151.48 507.844 274.596l.235.115c161.344-84.825 283.667 58.343 280.381 212.864-.938 70.861-28.115 143.685-89.785 196.8.442-.79.83-1.583 1.269-2.368-13.469 22.879-31 41.844-51.18 56.966 10.182 3.323 5.996 19.817-28.224 61.5h-.264c27.789 10.047 53.02 24.029 75.085 41.457 34.029 26.623 61.731 62.173 78.911 106.63 144.859-89.434 241.413-249.592 241.413-432.407C1015.681 235.702 788.3 8.435 507.843 8.435z" fill="#002738"/><path d="M538.103 781.649c.703-.083 1.406-.133 2.104-.22 10.551-3.149 88.219-49.089 108.56-42.452 20.18-15.121 37.712-34.087 51.181-56.966 9.943-18.073 17.168-36 22.053-54.652 4.53-18.288 7.021-38.15 7.021-59.661 0-11.312.207-22.462.376-33.368-.793-13.37-2.186-27.446-4.12-42.424-95.712 5.857-163.659-27.884-217.427-82.003-75.208 51.313-146.904 80.95-214.029 82.003-1.075 19.499-1.843 37.762-1.938 55.029.086 5.74.153 11.555.17 17.436.739 29.082 3.979 55.276 11.864 79.606.228.67.463 1.326.695 1.992.777 2.31 1.603 4.595 2.467 6.873a206.353 206.353 0 003.46 8.422c.144.327.276.662.425.988a196.98 196.98 0 004.186 8.774c.236.463.463.934.699 1.393 1.186 2.298 2.434 4.533 3.695 6.757.867 1.512 1.731 3.03 2.653 4.534a193.758 193.758 0 0047.122 53.015c31.422 2.938 115.805 44.217 121.43 43.717 19.168 2.525 28.243 1.79 47.353 1.207zm157.253 60.285c35.034 27.66 62.063 63.967 78.805 106.692l.103-.066c-17.176-44.452-44.874-80.003-78.908-106.626zm-362.165.723c-34.422 27.198-62.265 63.612-79.184 109.176 16.485-43.754 43.708-80.908 79.184-109.176z" fill="#FCE9EA"/><path d="M695.356 841.934c-22.065-17.428-47.295-31.414-75.084-41.456l-210.364-.12-.107-.095c-28.41 10.2-54.165 24.511-76.61 42.398-35.472 28.273-62.699 65.422-79.184 109.176-.438 1.166-.835 2.356-1.257 3.53C327.715 998.997 414.855 1024 507.843 1024c97.67 0 188.886-27.59 266.318-75.366-16.742-42.737-43.77-79.04-78.805-106.7z" fill="#B0C11D"/><path d="M620.272 800.473h.264c34.22-41.683 38.406-58.177 28.223-61.5-20.342-6.633-98.01 39.307-108.56 42.452a3.124 3.124 0 01-.963.182l-1.137.037c-19.11.587-28.181 1.319-47.362-1.206-5.624.5-90.008-40.779-121.43-43.717-20.25-1.897-18.51 12.134 40.49 63.533l.107.095 210.368.124z" fill="#FF5947"/><path d="M315.842 672.419c-.24-.459-.463-.93-.699-1.393a180.79 180.79 0 01-4.186-8.774l-.426-.988a184.877 184.877 0 01-5.927-15.295c-.223-.666-.475-1.323-.694-1.992-7.885-24.33-11.125-50.524-11.865-79.606a563.193 563.193 0 01-.17-17.436c.095-17.267.86-35.53 1.939-55.029 67.125-1.054 138.82-30.694 214.03-82.003V274.596C273.1 151.479 130.22 499.466 323.333 685.668c-.409-.648-.748-1.31-1.144-1.963-.922-1.5-1.786-3.017-2.654-4.533a182.644 182.644 0 01-3.694-6.753zm382.833 11.96c61.67-53.119 88.847-125.939 89.785-196.8-1.492 69.977-28.727 142.28-89.785 196.8z" fill="#FECF77"/><path d="M507.843 409.903c53.772 54.123 121.715 87.864 217.427 82.003 1.934 14.978 3.327 29.054 4.12 42.424 2.079 34.81.004 64.765-7.398 93.029-4.885 18.651-12.109 36.58-22.052 54.652-.434.785-.823 1.579-1.27 2.368 61.055-54.516 88.294-126.823 89.786-196.8 3.286-154.525-119.037-297.69-280.381-212.864l-.236-.115v135.303z" fill="#FF9F31"/></svg>