<svg class="icon" viewBox="0 0 1024 1024" xmlns="http://www.w3.org/2000/svg" width="200" height="200"><defs><style/></defs><path d="M511.95.117C229.228.117 0 229.344 0 512.067 0 686.204 86.979 840.014 219.841 932.5a.5.5 0 01.02-.075l-.082-.055c.65-2.262 1.37-4.482 2.07-6.716.25-.791.48-1.6.738-2.387a289.88 289.88 0 019.286-24.852c.346-.812.717-1.616 1.07-2.428a285.539 285.539 0 0110.592-21.62c.383-.703.754-1.42 1.145-2.124a275.998 275.998 0 0113.499-21.835c.562-.821 1.142-1.625 1.712-2.438a277.844 277.844 0 017.875-10.699 274.146 274.146 0 016.032-7.495c.65-.783 1.283-1.57 1.942-2.345a276.348 276.348 0 0117.106-18.311c.867-.842 1.75-1.662 2.625-2.5a281.327 281.327 0 019.703-8.811l1.042-.917v.046c23.914-20.481 51.545-37.1 82.204-49.212a307.816 307.816 0 0112.783-4.737 340.213 340.213 0 018.67-2.846c1.337-.416 2.666-.85 4.012-1.254a317.369 317.369 0 0112.828-3.57l.208-.05a337.092 337.092 0 0112.957-2.992c1.379-.287 2.77-.55 4.158-.824a357.828 357.828 0 0114.17-2.513 342.62 342.62 0 019.682-1.354c1.425-.179 2.841-.379 4.274-.541a355.982 355.982 0 0114.04-1.354h25.748c-99.57 0-185.02-60.382-221.778-146.52-13.032 64.394-91.308 120.497-138.653 101.407 32.242-31.78 5.253-190.419 119.505-189.24-8.154-158.646 139.003-254.679 240.93-247.721h.117c102.036-6.958 249.546 89.075 241.285 247.722 113.888-1.146 86.9 157.7 119.025 189.477-47.395 19.265-125.729-37.372-138.428-102.144-36.638 86.404-122.242 147.019-222.003 147.019h25.98c4.725.354 9.396.82 14.037 1.354 1.437.162 2.858.362 4.279.541a357.594 357.594 0 0114.402 2.125c3.154.533 6.283 1.12 9.395 1.733 1.413.28 2.83.546 4.233.842 4.242.896 8.445 1.854 12.603 2.908.271.067.546.129.817.204 4.2 1.07 8.34 2.237 12.449 3.466 1.462.434 2.9.904 4.35 1.359a326.56 326.56 0 018.223 2.695 318.969 318.969 0 0112.52 4.625c30.293 11.907 57.632 28.214 81.367 48.3v-.047c.363.3.704.625 1.062.934a267.937 267.937 0 015.779 5.082c.98.888 1.95 1.792 2.916 2.692 2.004 1.862 4.004 3.737 5.954 5.662.37.366.73.75 1.1 1.12a273.377 273.377 0 0119.89 22.173c.437.546.883 1.088 1.312 1.633a264.027 264.027 0 015.729 7.504c.333.454.662.92.995 1.379 18.982 26.089 33.53 55.77 42.909 88.375 132.749-92.503 219.645-246.246 219.645-420.3C1023.9 229.344 794.676.117 511.95.117z" fill="#FCD077"/><path d="M733.953 578.685c11.324-26.71 17.903-55.899 18.836-86.508-70.589 43.575-216.458-31.272-240.843-134.462C487.627 461.138 341.388 536.11 271.094 491.91c.913 30.901 7.583 60.357 19.074 87.28 36.758 86.137 122.208 146.518 221.778 146.518 99.77 0 185.37-60.615 222.007-147.023z" fill="#FCE9EA"/><path d="M511.95 357.715v-114.08c-101.923-6.958-249.08 89.074-240.93 247.721-114.252-1.179-87.259 157.46-119.506 189.24 47.35 19.09 125.621-37.013 138.654-101.407-11.491-26.922-18.161-56.373-19.074-87.279 70.298 44.2 216.538-30.772 240.856-134.195z" fill="#ADBE20"/><path d="M752.793 492.177c-.937 30.61-7.516 59.798-18.835 86.508 12.698 64.773 91.032 121.41 138.428 102.144-32.126-31.776-5.137-190.623-119.026-189.477 8.261-158.647-139.25-254.68-241.285-247.722h-.117v114.085c24.377 103.19 170.246 178.041 240.835 134.462z" fill="#BECF3D"/><path d="M726.367 804.521zm-129.484-69.31c.271.071.546.13.817.205a19.477 19.477 0 00-.817-.204zm-16.835-3.753c1.412.279 2.828.546 4.232.841-1.404-.295-2.82-.558-4.232-.841zm224.19 200.918a510.754 510.754 0 01.017-.009c-9.378-32.605-23.927-62.285-42.908-88.374 18.964 26.093 33.525 55.777 42.891 88.383zM771.6 953.328zM754.622 835.11zm-21.206-23.806zm-15.744-14.557zm-94.95-53.811zm-12.57-4.054c1.463.433 2.9.904 4.35 1.358-1.45-.458-2.89-.925-4.35-1.358zm-44.232-9.924zm150.69 66.902c-23.736-20.082-51.075-36.388-81.368-48.3.47.184.95.371 1.42.563V882.06H385.355V748.952c1.02-.417 2.054-.813 3.079-1.217-30.66 12.107-58.29 28.73-82.205 49.212v183.911a512.17 512.17 0 01-86.362-48.428l-.02.075c82.845 57.673 183.523 91.516 292.108 91.516 74.714 0 145.682-16.02 209.676-44.787-1.654.745-3.354 1.416-5.017 2.145V795.86zm-306.73-55.703c1.338-.417 2.667-.85 4.013-1.254-1.346.404-2.67.841-4.012 1.254zM273.803 829.78c.65-.783 1.284-1.57 1.942-2.345-.658.775-1.292 1.562-1.942 2.345zm166.084-97.486c1.38-.287 2.77-.55 4.158-.825-1.387.275-2.783.534-4.158.825zm-13.165 3.037l.208-.05-.208.05zM265.582 840.14zm187.915-110.42zm-160.642 79.41c.866-.842 1.75-1.663 2.625-2.5-.875.837-1.763 1.658-2.625 2.5zm9.178-8.546zm94.75-56.015zM237.284 886.555zM221.85 925.66c.25-.792.48-1.6.738-2.388-.255.788-.488 1.592-.738 2.388zm10.028-27.24c.346-.812.717-1.62 1.071-2.428-.354.812-.725 1.612-1.07 2.429zm320.094-171.358c1.437.163 2.858.363 4.279.542-1.425-.18-2.846-.38-4.279-.542zm-84.08.542c1.426-.18 2.842-.38 4.275-.542-1.433.163-2.85.363-4.274.542zM258.184 850.409c.563-.821 1.142-1.625 1.712-2.438-.57.817-1.154 1.617-1.712 2.438zm-14.648 23.96c.383-.704.754-1.42 1.145-2.125-.387.704-.758 1.42-1.145 2.125zm494.314 97.194z" fill="#FF9F31"/><path d="M385.354 882.064h251.309V748.127a296.313 296.313 0 00-22.165-7.883c-1.45-.454-2.887-.925-4.35-1.358a314.328 314.328 0 00-12.448-3.466c-.27-.075-.546-.133-.817-.204a324.118 324.118 0 00-12.603-2.908c-1.404-.296-2.82-.563-4.232-.842a356.236 356.236 0 00-14.128-2.504 343.866 343.866 0 00-9.67-1.354c-1.425-.179-2.846-.379-4.279-.542a355.77 355.77 0 00-14.036-1.354h-51.728a356.748 356.748 0 00-14.04 1.354c-1.434.163-2.85.363-4.275.542a360.869 360.869 0 00-14.395 2.12c-3.174.538-6.324 1.13-9.457 1.746-1.387.275-2.779.538-4.158.825a337.092 337.092 0 00-12.957 2.992l-.208.05a331.66 331.66 0 00-12.828 3.57c-1.346.404-2.675.838-4.012 1.254a324.468 324.468 0 00-13.103 4.412 307.816 307.816 0 00-8.35 3.17c-1.028.405-2.058.8-3.078 1.217v133.1zM511.95 763.496a15.232 15.232 0 110 30.468 15.236 15.236 0 010-30.468zm0 55.153a15.232 15.232 0 110 30.464 15.236 15.236 0 010-30.464zm-205.726-21.702v-.046c-.35.3-.691.609-1.041.917a282.04 282.04 0 00-9.703 8.812c-.875.833-1.763 1.654-2.625 2.5a272.128 272.128 0 00-17.107 18.31c-.658.775-1.296 1.562-1.941 2.346A267.928 267.928 0 00259.9 847.98c-.571.812-1.15 1.616-1.713 2.437a276.756 276.756 0 00-13.498 21.835c-.392.704-.763 1.421-1.146 2.125a280.31 280.31 0 00-10.59 21.619c-.355.808-.721 1.616-1.071 2.429a288.493 288.493 0 00-9.287 24.852c-.258.787-.487 1.595-.737 2.387-.7 2.233-1.421 4.454-2.071 6.716a512.17 512.17 0 0086.446 48.483V796.947zm455.127 47.046c-.334-.459-.663-.925-.996-1.38a270.099 270.099 0 00-5.729-7.503l-1.312-1.633a273.457 273.457 0 00-19.89-22.173c-.37-.37-.729-.754-1.1-1.12a263.245 263.245 0 00-5.953-5.663 220.716 220.716 0 00-2.917-2.691 279.814 279.814 0 00-5.778-5.083c-.359-.304-.7-.629-1.063-.933V981.37c1.663-.73 3.363-1.4 5.017-2.146l.029-.012a508.7 508.7 0 0016.194-7.654l2.258-1.12a510.675 510.675 0 0031.493-17.115l1.458-.859a510.184 510.184 0 0031.184-20.094c-9.374-32.6-23.935-62.285-42.895-88.378z" fill="#FEFEFE"/><path d="M496.714 778.732a15.236 15.236 0 1030.472 0 15.236 15.236 0 10-30.472 0zm.004 55.149a15.232 15.232 0 1030.464 0 15.232 15.232 0 10-30.464 0z" fill="#FF9F31"/></svg>