<svg class="icon" viewBox="0 0 1025 1024" xmlns="http://www.w3.org/2000/svg" width="200.195" height="200"><defs><style/></defs><path d="M295.074 558.635c-.058-16.724-.507-32.912-.582-48.403-1.046 16.995-.843 33.116.582 48.403zM544.02 777.146l-.124.013c.041-.009.07 0 .124-.013z" fill="#B6E7FC"/><path d="M511.86.042C229.969.042 1.53 228.476 1.53 510.49c0 188.419 102.073 352.985 253.936 441.42 15.341-43.189 40.323-78.382 71.458-105.487 24.683-21.696 53.832-38.811 86.466-50.521-59.332-51.66-61.068-65.726-40.693-63.786a194.837 194.837 0 01-47.219-53.105c-261.683-19.644-45.57-533.441 186.737-411.325 98.143-51.61 192.41 9.663 249.625 99.386 78.968 122.644 88.709 298.555-57.808 311.715-13.384 22.24-30.595 40.76-50.36 55.58 10.107 3.403 5.8 20.007-28.534 61.784h-.261c32.538 11.76 61.6 28.9 86.204 50.604 27.255 23.82 49.762 53.866 65.19 90.048.137.324.261.66.403.984 1.021 2.422 2.048 4.84 3.007 7.32 145.616-89.915 242.63-250.925 242.63-434.617C1022.312 228.476 793.87.042 511.86.042z" fill="#B6E7FC"/><path d="M326.927 846.427c-31.134 27.101-56.117 62.294-71.458 105.488l.009.004c14.983-41.561 39.459-77.373 71.45-105.492zm452.703 98.709l.054-.034c-.955-2.48-1.985-4.897-3.007-7.32 1.034 2.423 1.99 4.89 2.953 7.354zm-236.095-167.94a1.562 1.562 0 00.362-.037l.124-.013c8.558-1.79 89.055-49.715 109.65-42.778 19.765-14.822 36.976-33.34 50.36-55.581a198.72 198.72 0 01-15.428.79c34.736-50.398 52.278-112.334 41.918-193.583l-215.952 1.059h-2.592v-.013l-215.246-1.046a372.563 372.563 0 00-2.239 24.234c.075 15.49.52 31.675.582 48.403 4.4 47.232 20.014 86.757 43.576 120.94a209.272 209.272 0 01-13.168-.568 194.779 194.779 0 0047.218 53.105c31.6 3.008 116.388 44.519 121.971 44.016 19.782 2.484 28.846 1.658 48.864 1.072zm232.739 159.607c-15.432-36.182-37.939-66.224-65.19-90.048 27.895 24.605 50.086 55.033 65.19 90.048z" fill="#FCE9EA"/><path d="M776.274 936.803c-15.104-35.015-37.3-65.443-65.19-90.048-24.604-21.704-53.666-38.844-86.204-50.604l-211.337-.116a4.042 4.042 0 00-.145-.13c-32.635 11.711-61.783 28.826-86.467 50.522-31.994 28.123-56.466 63.935-71.45 105.492 75.338 43.87 162.914 69.02 256.384 69.02 98.222 0 189.931-27.754 267.765-75.8a237.931 237.931 0 00-2.953-7.352l-.403-.984z" fill="#3B9CBD"/><path d="M624.88 796.15h.262c34.337-41.776 38.64-58.38 28.534-61.782-20.596-6.937-101.097 40.988-109.65 42.778-.054.013-.084.004-.125.013a1.541 1.541 0 01-.361.037c-20.015.59-29.083 1.412-48.864-1.063-5.583.502-90.372-41.01-121.971-44.017-20.372-1.94-18.64 12.13 40.693 63.786a4.042 4.042 0 00.145.128l211.337.12z" fill="#C9CACA"/><path d="M761.839 367.072c-57.214-89.723-151.482-150.995-249.625-99.386 97.5-51.256 191.991 9.87 249.625 99.386zM295.074 558.635c-1.42-15.29-1.628-31.413-.582-48.403.486-7.9 1.184-15.943 2.24-24.234l215.245 1.047V267.686h.237C279.908 145.57 63.798 659.363 325.477 679.011c4.262.32 8.653.515 13.169.57-23.558-34.189-39.177-73.71-43.572-120.946z" fill="#C4BFFF"/><path d="M511.981 487.045v.012h2.592l215.952-1.06c10.36 81.25-7.182 143.186-41.918 193.583a200.798 200.798 0 0015.428-.79c146.517-13.16 136.776-189.07 57.808-311.714-57.633-89.515-152.125-150.642-249.625-99.385h-.237v219.354z" fill="#B2ABFF"/></svg>