<?xml version="1.0" standalone="no"?><!DOCTYPE svg PUBLIC "-//W3C//DTD SVG 1.1//EN" "http://www.w3.org/Graphics/SVG/1.1/DTD/svg11.dtd"><svg t="1588919237656" class="icon" viewBox="0 0 1049 1024" version="1.1" xmlns="http://www.w3.org/2000/svg" p-id="5542" xmlns:xlink="http://www.w3.org/1999/xlink" width="204.8828125" height="200"><defs><style type="text/css"></style></defs><path d="M0 0m512 0l0 0q512 0 512 512l0 0q0 512-512 512l0 0q-512 0-512-512l0 0q0-512 512-512Z" fill="#BAD9FF" opacity=".123" p-id="5543"></path><path d="M913.08563 691.2h136.00237a25.6 25.6 0 0 0-20.015407-30.217481c-1.128296-25.903407-23.599407-46.582519-51.152593-46.582519-19.588741 0-36.608 10.448593-45.226667 25.808593a28.16 28.16 0 0 0-31.013926 33.592888 20.48 20.48 0 0 0-31.288888 17.398519h40.969481c0-0.455111-0.018963-0.910222-0.047407-1.355852 0.568889 0.474074 1.166222 0.929185 1.773037 1.355852z" fill="#4E5974" opacity=".107" p-id="5544"></path><path d="M261.12 271.36m18.962963 0l289.754074 0q18.962963 0 18.962963 18.962963l0 136.154074q0 18.962963-18.962963 18.962963l-289.754074 0q-18.962963 0-18.962963-18.962963l0-136.154074q0-18.962963 18.962963-18.962963Z" fill="#C4D2DD" opacity=".633" p-id="5545"></path><path d="M456.779852 376.983704l-16.943408-1.071408-12.060444-2.161777-10.296889 0.986074-15.483259 2.332444-140.458667-0.474074 43.738074 2.285037 3.887408 5.385481 19.029333-4.181333 73.671111-0.341333 18.517333-0.95763 7.016297 2.294519 12.269037-2.038519 50.896592-0.474074-33.782518-1.592889zM333.833481 400.279704l18.953482-1.166223 69.973333 0.44563-21.617777-2.275555 6.987851-2.085926-18.318222 0.90074-36.750222 0.360297-12.619852-1.327408-6.276741 2.029037-25.41037 0.483556 25.078518 2.635852zM292.380444 412.188444l15.388445 1.137778 10.998518-1.545481 9.377186 0.474074 14.051555 1.261037 127.876741-2.332445-39.841185 2.085926-12.866371 0.407704-8.011852 0.692148-67.062518 0.843852-16.346074 0.625778-6.921482 0.597333-11.150222-1.118815-46.326518 0.426667 30.833777-3.555556z" fill="#ACBBCB" opacity=".6" p-id="5546"></path><path d="M554.059852 289.943704l-16.943408-1.071408-12.060444-2.161777-10.296889 0.986074-15.483259 2.332444-140.458667-0.474074 43.738074 2.285037 3.887408 5.385481 19.029333-4.171851 73.671111-0.350815 18.517333-0.95763 7.016297 2.294519 12.269037-2.038519 50.896592-0.474074-33.782518-1.592889zM431.113481 313.239704l18.953482-1.166223 69.973333 0.44563-21.617777-2.275555 6.987851-2.085926-18.318222 0.90074-36.750222 0.360297-12.619852-1.327408-6.276741 2.029037-25.41037 0.483556 25.078518 2.635852zM389.660444 325.148444l15.388445 1.137778 10.998518-1.545481 9.367704 0.474074 14.061037 1.261037 127.886222-2.332445-39.850666 2.085926-12.866371 0.407704-8.011852 0.692148-67.062518 0.843852-16.346074 0.625778-6.921482 0.597333-11.150222-1.118815-46.336 0.436148 30.843259-3.565037z" fill="#ACBBCB" p-id="5547"></path><path d="M399.36 445.44h51.2v281.6h-51.2z" fill="#C4D2DD" p-id="5548"></path><path d="M408.841481 480.180148l-0.986074 16.943408-2.019555 12.060444 0.919704 10.296889 2.18074 15.483259-0.445629 140.458667 2.133333-43.738074 5.025185-3.887408-3.90637-19.019852-0.322371-73.671111-0.891259-18.526814 2.142815-7.016297-1.896296-12.269037-0.44563-50.896592-1.488593 33.782518zM430.592 603.117037l-1.080889-18.944 0.407704-69.973333-2.114371 21.617777-1.943703-6.987851 0.824889 18.318222 0.341333 36.740741-1.232593 12.629333 1.886815 6.276741 0.455111 25.41037 2.465185-25.078518zM441.713778 644.579556l1.052444-15.388445-1.441185-10.998518 0.44563-9.367704 1.175703-14.061037-2.18074-127.876741 1.953185 39.841185 0.379259 12.866371 0.644741 8.021333 0.786963 67.053037 0.587852 16.346074 0.549926 6.921482-1.042963 11.150222 0.407703 46.336-3.318518-30.843259z" fill="#ACBBCB" p-id="5549"></path><path d="M71.86963 522.24h162.341926a23.049481 23.049481 0 0 0-14.212741-29.468444 46.08 46.08 0 0 0-87.627852-15.748741 28.16 28.16 0 0 0-35.081482 26.472296A17.92 17.92 0 0 0 71.86963 522.24z" fill="#4E5974" opacity=".088" p-id="5550"></path><path d="M696.32 143.786667v-0.426667a61.44 61.44 0 0 0-117.494519-25.201778 35.84 35.84 0 0 0-41.168592 37.594074A25.6 25.6 0 0 0 501.76 179.2h219.742815a30.72 30.72 0 0 0-25.173334-35.413333z" fill="#4E5974" opacity=".107" p-id="5551"></path><path d="M514.56 1024c267.216593 0 483.84-77.937778 483.84-174.08 0-96.142222-216.623407-174.08-483.84-174.08S30.72 753.777778 30.72 849.92C30.72 946.062222 247.343407 1024 514.56 1024z" fill="#C4D2DD" p-id="5552"></path><path d="M595.399111 698.823111c31.355259 6.959407 33.374815-25.372444 85.997037-32.303407 29.487407-3.887407 54.660741 4.968296 54.660741 4.968296s45.074963-16.725333 54.262518-8.969481c12.885333 10.884741-0.142222 31.108741-5.195851 38.324148 15.568593 10.989037 20.954074 52.982519-4.845037 58.624-1.498074 17.98637-35.536593 84.574815-117.778963 82.602666-65.820444-1.583407-67.100444-143.246222-67.100445-143.246222z" fill="#97CFE6" p-id="5553"></path><path d="M782.800593 731.098074s0.512 2.360889 1.242074 6.494815c0.32237 2.066963 0.426667 4.664889 0.587852 7.651555 0.113778 1.517037-0.018963 3.081481-0.075852 4.750223-0.094815 1.659259-0.123259 3.432296-0.331852 5.262222-0.57837 3.621926-0.995556 7.623111-2.228148 11.70963-0.967111 4.152889-2.597926 8.334222-4.28563 12.67674-2.038519 4.181333-4.058074 8.590222-6.883556 12.638815l-1.991111 3.109926c-0.663704 1.061926-1.517037 1.962667-2.275555 2.977185-1.554963 1.943704-3.090963 3.944296-4.740741 5.82163-3.489185 3.602963-6.864593 7.310222-10.68563 10.477037-3.584 3.413333-7.642074 6.115556-11.377777 8.988444a28.728889 28.728889 0 0 1-2.891852 1.962667l-2.920296 1.801481c-1.924741 1.185185-3.792593 2.417778-5.669926 3.460741-3.858963 1.924741-7.461926 3.858963-10.884741 5.451852l-9.528889 3.877926c-1.403259 0.616296-2.787556 0.986074-4.039111 1.393778-1.261037 0.398222-2.417778 0.777481-3.470222 1.099852l-6.58963 2.066963a5.423407 5.423407 0 0 1-6.788741-3.384889 5.214815 5.214815 0 0 1 3.470222-6.608593l0.075852-0.018963 0.436148-0.123259 6.200889-1.829926 3.26163-0.948148c1.194667-0.360296 2.49363-0.692148 3.811556-1.232593l8.950518-3.413333c3.214222-1.422222 6.580148-3.147852 10.202074-4.854519 1.773037-0.948148 3.489185-2.057481 5.300148-3.100444 0.891259-0.521481 1.801481-1.071407 2.740148-1.611852 0.929185-0.530963 1.85837-1.099852 2.721186-1.763556 3.508148-2.550519 7.243852-5.063111 10.543407-8.182518l2.56-2.256593c0.426667-0.379259 0.881778-0.739556 1.289482-1.147259l1.175703-1.251555 4.702815-5.025186c1.479111-1.735111 2.825481-3.602963 4.266667-5.357037 1.479111-1.744593 2.683259-3.659852 3.953777-5.518222 2.654815-3.640889 4.664889-7.575704 6.874075-11.245037 1.801481-3.858963 3.849481-7.518815 5.148444-11.226074 1.630815-3.621926 2.578963-7.205926 3.735704-10.505481 0.530963-1.659259 0.853333-3.280593 1.251555-4.816593 0.331852-1.536 0.872296-3.00563 1.042963-4.389926 0.44563-2.768593 1.080889-5.214815 1.289482-7.300741 0.455111-4.171852 0.824889-6.561185 0.824889-6.561185z" fill="#2A68A9" p-id="5554"></path><path d="M741.214815 702.445037l1.213629 0.44563 1.450667 0.549926c0.568889 0.151704 1.21363 0.341333 1.934222 0.568888 1.441185 0.369778 3.252148 0.720593 5.281186 1.014519 2.057481 0.237037 4.370963 0.398222 6.864592 0.237037 2.49363-0.06637 5.176889-0.379259 7.954963-0.919704 2.768593-0.530963 5.613037-1.384296 8.51437-2.218666 1.460148-0.426667 2.910815-0.853333 4.389926-1.327408l1.080889-0.398222 0.549926-0.18963 0.284445-0.094814 0.13274-0.056889 0.720593-0.208593 0.037926-0.018963 0.06637-0.009481 0.63526-0.161186 0.312888-0.06637c0.094815-0.037926 0.530963-0.06637 0.796445-0.094815 1.137778-0.113778 2.597926-0.056889 3.261629 0.18963 3.441778 0.815407 5.480296 2.62637 7.149038 4.247704 1.592889 1.668741 2.768593 3.432296 3.821037 5.195851 2.038519 3.508148 3.39437 7.139556 4.408888 10.761482 1.005037 3.621926 1.611852 7.281778 1.839408 10.865778 0.530963 7.139556-0.559407 14.203259-3.365926 19.882666-1.422222 2.844444-3.223704 5.252741-5.091556 7.168a28.501333 28.501333 0 0 1-5.50874 4.200297c-0.853333 0.44563-1.60237 0.853333-2.275556 1.194666l-1.706667 0.70163c-0.948148 0.360296-1.441185 0.568889-1.441185 0.568889a5.413926 5.413926 0 0 1-6.987852-2.939259 5.195852 5.195852 0 0 1 2.967704-6.788741l0.559407-0.218074 0.910223-0.360296c0.293926-0.123259 0.663704-0.256 1.109333-0.426667l1.384296-0.739556c1.014519-0.568889 2.142815-1.384296 3.299556-2.474666a18.10963 18.10963 0 0 0 3.13837-4.408889c1.848889-3.659852 2.834963-8.903111 2.42726-14.658371a43.501037 43.501037 0 0 0-1.592889-8.779851 37.091556 37.091556 0 0 0-3.479704-8.305778 20.574815 20.574815 0 0 0-2.351407-3.19526 5.385481 5.385481 0 0 0-1.583408-1.232592c-0.151704-0.085333 0.407704 0.104296 0.682667-0.047408 0.037926-0.018963 0.246519-0.104296 0.142222-0.094814l-0.312889 0.075852-0.635259 0.13274-0.066371 0.018963-0.037925 0.018963 0.635259-0.189629-0.180148 0.056888-0.331852 0.113778-0.663704 0.227556-1.336889 0.436148a51.882667 51.882667 0 0 1-5.338074 1.374815c-3.565037 0.663704-7.111111 0.730074-10.410667 0.597333a48.440889 48.440889 0 0 1-9.197037-1.251555 42.989037 42.989037 0 0 1-7.357629-2.446223 34.142815 34.142815 0 0 1-5.176889-2.816l-1.773037-1.242074c-0.474074-0.379259-0.853333-0.720593-1.175704-0.995555a343.684741 343.684741 0 0 1-0.967111-0.834371 0.369778 0.369778 0 0 1-0.037926-0.530963 0.379259 0.379259 0 0 1 0.426667-0.094814zM595.399111 704.075852c14.14637 0 24.301037-3.280593 37.063111-10.666667 2.123852-1.232593 11.017481-6.637037 13.444741-8.049778 8.542815-4.949333 16.06163-8.38163 25.15437-11.131259 17.483852-5.281185 35.346963-4.333037 51.863704 0.474074a89.391407 89.391407 0 0 1 10.097778 3.602963l0.616296 0.284445c2.664296 1.298963 5.906963 0.246519 7.23437-2.341926a5.18637 5.18637 0 0 0-2.408296-7.044741 54.546963 54.546963 0 0 0-3.441778-1.479111c-2.645333-1.052444-5.660444-2.104889-9.007407-3.072-18.413037-5.366519-38.371556-6.428444-58.149926-0.44563-9.984 3.015111-18.251852 6.788741-27.467852 12.136297-2.569481 1.488593-11.463111 6.893037-13.444741 8.040296-11.226074 6.494815-19.569778 9.197037-31.55437 9.197037a5.319111 5.319111 0 0 0-5.394963 5.243259c0 2.901333 2.417778 5.252741 5.404445 5.252741z" fill="#2A68A9" p-id="5555"></path><path d="M697.495704 671.696593s0.587852 0.009481 1.659259 0.06637c1.042963 0.028444 2.702222 0.113778 4.626963 0.132741a216.585481 216.585481 0 0 0 16.270222-0.322371 148.15763 148.15763 0 0 0 22.660741-3.024592c4.067556-0.891259 8.229926-1.934222 12.278518-3.365926a75.425185 75.425185 0 0 0 11.832889-5.176889l1.687704-0.872296 1.545481-0.768c0.284444-0.132741 0.474074-0.256 0.805926-0.388741l0.995556-0.398222 2.019556-0.758519c1.355852-0.369778 2.654815-0.711111 4.020148-0.929185 1.393778-0.161185 2.778074-0.379259 4.219259-0.284444 5.669926-0.047407 11.738074 2.863407 14.923852 7.49037 1.716148 2.23763 2.597926 4.769185 3.261629 7.196444 0.18963 1.21363 0.436148 2.436741 0.512 3.621926 0 1.175704 0.094815 2.351407 0 3.479704l-0.161185 1.678222-0.094815 0.824889-0.009481 0.199111-0.018963 0.094815-0.047407 0.293926-0.075852 0.350815c-0.208593 0.948148-0.293926 1.735111-0.597334 2.797037-0.293926 1.024-0.57837 2.133333-0.929185 3.034074-0.331852 0.929185-0.654222 1.85837-1.014518 2.711704a51.768889 51.768889 0 0 1-4.759704 8.884148 81.540741 81.540741 0 0 1-4.513185 6.219852 91.619556 91.619556 0 0 1-3.26163 3.773629c-0.796444 0.853333-1.298963 1.34637-1.327407 1.384296a5.489778 5.489778 0 0 1-7.61363-0.32237 5.157926 5.157926 0 0 1 0.331852-7.424 47.672889 47.672889 0 0 0 4.077037-3.830518c1.242074-1.34637 2.74963-2.996148 4.247704-5.05363 1.488593-2.048 3.034074-4.437333 4.323555-7.168 0.331852-0.682667 0.587852-1.384296 0.910222-2.104889 0.293926-0.720593 0.436148-1.34637 0.70163-2.048 0.227556-0.682667 0.417185-1.72563 0.625778-2.597926l0.075852-0.341333 0.018963-0.056889c-0.075852 0.379259-0.018963 0.094815-0.037926 0.151704v-0.066371l0.018963-0.151703 0.06637-0.578371 0.142222-1.185185c0.104296-0.796444 0-1.564444 0.037926-2.37037-0.037926-0.786963-0.208593-1.536-0.303407-2.322963-0.436148-1.431704-0.853333-2.958222-1.801482-4.067556a8.391111 8.391111 0 0 0-3.337481-2.768592 10.192593 10.192593 0 0 0-4.579556-1.024 16.526222 16.526222 0 0 0-5.214814 0.824888l-1.194667 0.436149-0.616296 0.208592c-0.208593 0.06637-0.493037 0.237037-0.739556 0.360296l-1.517037 0.758519-0.398222 0.18963-0.18963 0.113777-0.094815 0.047408 0.161185-0.085334-0.047407 0.037926-0.805926 0.426667c-4.247704 2.408296-8.722963 4.266667-13.169778 5.878519-4.456296 1.611852-8.912593 2.863407-13.274074 3.90637-4.352 1.061926-8.599704 1.782519-12.61037 2.408296a222.814815 222.814815 0 0 1-21.020445 2.019556c-2.863407 0.132741-5.376 0.208593-7.461925 0.237037-2.104889 0.06637-3.631407 0.047407-4.721778 0.06637l-1.649778 0.018963a5.338074 5.338074 0 0 1-5.44237-5.214815 5.319111 5.319111 0 0 1 5.357037-5.290666 0.616296 0.616296 0 0 0 0.237037 0.037926z" fill="#2A68A9" p-id="5556"></path><path d="M732.036741 680.666074s10.998519-22.528 19.986963-23.419259c8.988444-0.881778 16.858074 14.440296 16.858074 14.440296s-6.513778 5.252741-16.402963 8.106667c-9.879704 2.844444-20.442074 0.872296-20.442074 0.872296z" fill="#97CFE6" p-id="5557"></path><path d="M727.163259 678.4c-1.517037 3.109926 0.379259 6.769778 3.849482 7.414519a54.442667 54.442667 0 0 0 20.906666-0.44563 57.590519 57.590519 0 0 0 20.394667-9.633185 5.157926 5.157926 0 0 0 1.393778-6.390519 51.484444 51.484444 0 0 0-5.394963-8.154074c-4.968296-6.115556-10.42963-9.784889-16.82963-9.159111a14.449778 14.449778 0 0 0-6.883555 2.778074c-3.451259 2.417778-6.807704 6.267259-10.192593 11.226074a107.140741 107.140741 0 0 0-7.243852 12.373333z m23.789037-3.640889a28.918519 28.918519 0 0 1-1.517037 0.388741 39.651556 39.651556 0 0 1-8.760889 0.948148c0.872296-1.460148 1.782519-2.88237 2.711704-4.247704 2.730667-3.991704 5.357037-7.016296 7.518815-8.533333a4.456296 4.456296 0 0 1 1.668741-0.83437c1.659259-0.170667 4.389926 1.668741 7.281777 5.233777 0.625778 0.777481 1.232593 1.592889 1.810963 2.42726a48.374519 48.374519 0 0 1-10.714074 4.617481zM685.018074 692.688593a5.262222 5.262222 0 0 0 4.617482 6.542222 60.558222 60.558222 0 0 0 11.377777 0.094815 28.34963 28.34963 0 0 0 12.932741-4.190815c2.360889-1.460148 4.152889-2.910815 5.252741-3.972741a5.148444 5.148444 0 0 0 1.014518-6.068148 32.170667 32.170667 0 0 0-4.342518-6.267259c-3.821037-4.361481-8.277333-7.111111-13.558519-7.054223-6.125037 0.06637-10.30637 4.522667-13.729185 11.472593a54.888296 54.888296 0 0 0-3.565037 9.443556z m18.403556-4.380445a22.689185 22.689185 0 0 1-3.441778 0.549926 39.243852 39.243852 0 0 1-2.23763 0.142222l0.568889-1.223111c0.967111-1.943704 1.972148-3.508148 2.929778-4.532148 0.70163-0.749037 1.109333-0.976593 1.185185-0.976593 1.412741-0.009481 3.290074 1.147259 5.243259 3.375408l0.512 0.597333c-1.583407 0.95763-3.195259 1.678222-4.759703 2.066963z" fill="#2A68A9" p-id="5558"></path><path d="M279.087407 797.942519c25.505185 3.00563 50.005333 32.009481 32.360297 57.818074-13.691259 20.043852-48.526222 18.991407-61.326223 0-16.042667-23.770074-14.601481-66.085926 26.965334-87.760593" fill="#97CFE6" p-id="5559"></path><path d="M524.86637 621.767111a50.849185 50.849185 0 0 0-40.77037-7.120592c-17.711407 4.41837-47.066074 13.293037-91.136 30.957037-81.806222 32.739556-117.94963 77.084444-116.954074 137.320296 1.024 63.715556 81.578667 105.007407 177.787259 121.837037 96.18963 16.82963 186.102519 5.366519 208.933926-54.167704 21.598815-56.272593 2.844444-110.222222-62.795852-168.77037-35.375407-31.55437-59.932444-49.872593-75.064889-60.055704z" fill="#97CFE6" p-id="5560"></path><path d="M581.385481 844.449185c9.102222-45.681778-49.095111-95.649185-129.991111-111.597037-80.905481-15.966815-153.874963 8.144593-162.986666 53.826371-9.102222 45.681778 49.095111 95.649185 129.991111 111.597037 80.905481 15.957333 153.874963-8.144593 162.986666-53.826371z" fill="#FFFFFF" p-id="5561"></path><path d="M532.100741 857.495704a34.209185 34.209185 0 0 1 25.514666 21.665185c-15.890963 11.690667-38.437926 19.560296-64.663703 22.622815a33.640296 33.640296 0 0 1-1.128297-17.483852c3.669333-18.469926 21.712593-30.473481 40.277334-26.804148zM288.786963 807.632593c4.484741-1.991111 9.462519-3.081481 14.696296-2.958223 19.038815 0.417185 34.133333 16.090074 33.716148 35.024593a33.972148 33.972148 0 0 1-8.154074 21.390222c-21.579852-15.786667-36.02963-34.503111-40.25837-53.456592zM394.638222 868.200296c5.044148 7.348148 15.151407 8.485926 22.034963 0.815408a2.588444 2.588444 0 0 0-0.199111-3.669334 2.616889 2.616889 0 0 0-3.688296 0.208593c-4.551111 5.063111-10.638222 4.380444-13.833482-0.284444-3.26163-4.759704-1.099852-10.334815 7.698963-13.539556a2.588444 2.588444 0 0 0 0.616297-4.551111c-6.949926-4.892444-6.893037-11.226074-1.829926-14.971259 5.091556-3.754667 11.169185-1.896296 14.023111 6.475851a2.607407 2.607407 0 0 0 4.939852-1.66874c-3.982222-11.719111-14.155852-14.819556-22.072889-8.969482-6.874074 5.082074-7.812741 13.795556-1.365334 20.565334-8.704 4.769185-10.960593 12.818963-6.324148 19.58874z" fill="#E0787A" p-id="5562"></path><path d="M314.642963 780.250074s-5.18637 8.049778-5.18637 15.17037c0 7.130074-0.132741 23.779556-5.025186 23.779556-4.911407 0-7.566222 13.681778-7.566222 13.681778S331.851852 865.28 347.913481 870.4c16.06163 5.12 16.516741-15.587556 16.289186-20.48-0.227556-4.892444-3.223704-22.262519 1.687703-30.72 4.911407-8.457481 5.072593-30.748444 5.072593-30.748444l-56.32-8.201482zM486.968889 815.559111s-15.378963 21.428148-13.492148 43.975111c1.896296 22.556444-10.467556 47.80563-10.467556 47.80563s48.943407 4.475259 66.076445 4.475259c17.123556 0 0-32.502519 5.859555-52.280889 5.869037-19.77837 5.072593-30.748444 5.072593-30.748444l-53.039408-13.226667z" fill="#C8DBFF" opacity=".742" p-id="5563"></path><path d="M485.745778 820.508444l55.324444 10.932149a5.18637 5.18637 0 0 0 2.029037-10.17363l-55.314963-10.94163a5.18637 5.18637 0 0 0-2.038518 10.17363zM314.121481 784.402963l55.314963 10.922667a5.18637 5.18637 0 0 0 2.038519-10.17363l-55.324444-10.932148a5.18637 5.18637 0 0 0-2.029038 10.173629z" fill="#2A68A9" p-id="5564"></path><path d="M391.243852 641.365333c38.33363-15.36 68.655407-25.381926 91.733333-31.146666a55.466667 55.466667 0 0 1 44.468148 7.774814c19.721481 13.274074 44.790519 32.995556 75.548445 60.425482 66.199704 59.050667 86.632296 114.87763 64.018963 173.795556-22.158222 57.761185-105.396148 76.041481-214.016 57.040592-108.619852-19.000889-180.584296-64.44563-181.579852-126.264889-1.042963-63.070815 37.338074-108.61037 119.826963-141.624889z m267.188148 207.597037c21.096296-54.954667 2.048-107.008-61.572741-163.745185-30.454519-27.173926-55.201185-46.629926-74.56237-59.676444a46.241185 46.241185 0 0 0-37.072593-6.475852c-22.660741 5.660444-52.593778 15.54963-90.548148 30.767407-79.265185 31.725037-115.048296 74.183111-114.081185 133.015704 0.900741 55.940741 69.243259 99.100444 173.985185 117.418667 104.751407 18.327704 183.808 0.967111 203.851852-51.294815z" fill="#2A68A9" p-id="5565"></path><path d="M569.874963 665.543111s9.253926-19.095704 42.761481-33.422222c33.517037-14.317037 37.063111-43.444148 50.744889-45.293037 13.691259-1.848889 35.081481 19.114667-3.413333 59.648-5.214815 5.489778 23.068444 15.416889 6.731852 31.288889-13.710222 13.349926-49.664-24.746667-71.158519 9.197037-0.018963 0-20.764444-0.910222-25.66637-21.428148z" fill="#11A7A7" p-id="5566"></path><path d="M685.729185 599.770074c-2.578963-11.567407-12.913778-18.820741-22.964148-17.464889-4.522667 0.616296-8.182519 3.128889-11.946667 7.518815-1.488593 1.716148-11.624296 16.004741-15.625481 20.498963a66.825481 66.825481 0 0 1-24.367408 17.607111c-6.580148 2.816-12.553481 5.935407-17.948444 9.310815-8.941037 5.594074-15.900444 11.624296-21.096296 17.701926a55.864889 55.864889 0 0 0-4.54163 6.039704c-0.749037 1.156741-1.232593 2.029037-1.498074 2.578962a4.551111 4.551111 0 0 0 2.142815 6.087112c2.275556 1.099852 5.025185 0.142222 6.125037-2.123852a18.678519 18.678519 0 0 1 0.95763-1.621334c0.967111-1.507556 2.228148-3.195259 3.802074-5.044148 4.608-5.376 10.856296-10.808889 19.000888-15.900444a121.069037 121.069037 0 0 1 16.687408-8.63763 75.937185 75.937185 0 0 0 27.610074-19.949037c4.427852-4.977778 14.629926-19.342222 15.720296-20.622222 2.446222-2.844444 4.333037-4.143407 6.219852-4.399407 5.290667-0.711111 11.207111 3.441778 12.752593 10.391703 2.23763 10.031407-3.754667 24.357926-20.138667 41.604741-2.929778 3.090963-2.322963 6.684444 0.151704 10.002963 0.682667 0.919704 1.488593 1.820444 2.654815 3.024593 0.218074 0.218074 2.23763 2.256593 2.825481 2.872888 6.096593 6.371556 6.855111 9.803852 1.242074 15.265186-2.844444 2.768593-6.826667 2.190222-21.266963-2.616889-6.97837-2.322963-11.282963-3.51763-16.023704-4.209778-14.108444-2.048-25.41037 2.484148-33.943703 15.947852a4.551111 4.551111 0 0 0 1.450666 6.295703 4.598519 4.598519 0 0 0 6.324149-1.422222c6.494815-10.258963 14.165333-13.340444 24.841481-11.785481 4.048593 0.587852 7.945481 1.668741 14.440296 3.830518 9.765926 3.252148 11.633778 3.811556 15.625482 4.389926 6.144 0.881778 11.131259-0.170667 14.980741-3.915852 5.376-5.233778 7.395556-10.789926 6.162963-16.421926-0.910222-4.133926-3.223704-7.509333-7.186963-11.643259-0.644741-0.682667-2.702222-2.759111-2.863408-2.939259a30.663111 30.663111 0 0 1-1.545481-1.678222c17.389037-18.716444 24.177778-35.384889 21.238518-48.57363z" fill="#2A68A9" p-id="5567"></path><path d="M423.793778 634.130963s-2.142815-21.077333-28.728889-45.937778c-26.595556-24.832-19.930074-53.418667-32.142222-59.799704-12.231111-6.381037-39.528296 6.049185-17.256297 57.239704 3.015111 6.921481-26.965333 6.637037-17.066666 27.117037 8.305778 17.21837 55.068444-6.494815 63.611259 32.711111-0.018963 0 19.911111 6.295704 31.573333-11.33037z" fill="#11A7A7" p-id="5568"></path><path d="M340.451556 586.040889c-0.900741 0.493037-5.357037 2.607407-6.324149 3.109926-11.064889 5.688889-15.540148 13.435259-9.671111 25.581037 2.218667 4.598519 6.295704 7.272296 11.946667 8.590222 3.821037 0.891259 7.205926 1.118815 15.227259 1.308445 4.304593 0.094815 6.115556 0.161185 8.438519 0.312888 16.213333 1.061926 24.348444 6.049185 27.496296 20.527408a4.589037 4.589037 0 0 0 8.978963-1.924741c-4.171852-19.152593-16.014222-26.405926-35.877926-27.704889a191.203556 191.203556 0 0 0-8.817778-0.331852c-13.188741-0.312889-17.464889-1.308444-19.114666-4.731259-3.299556-6.826667-1.564444-9.832296 5.613037-13.520593 0.730074-0.379259 5.366519-2.578963 6.570666-3.242666 4.54163-2.512593 6.949926-5.632 4.968297-10.192593-9.481481-21.778963-10.192593-37.281185-4.645926-45.947259 3.830519-6.011259 10.827852-7.907556 15.549629-5.44237 2.37037 1.232593 3.953778 4.266667 6.030223 11.624296l2.085925 7.585185c0.919704 3.26163 1.792 6.030222 2.768593 8.77037 2.56 7.111111 5.736296 13.444741 10.040889 19.493926 2.910815 4.086519 6.286222 7.964444 10.211556 11.614815 11.188148 10.467556 18.725926 20.92563 23.305481 30.862222 1.573926 3.413333 2.664296 6.513778 3.365926 9.216 0.407704 1.536 0.587852 2.56 0.625778 2.996149a4.579556 4.579556 0 0 0 9.130666-0.919704 31.175111 31.175111 0 0 0-0.872296-4.361482 64.891259 64.891259 0 0 0-3.90637-10.733037c-5.072593-10.998519-13.302519-22.433185-25.372445-33.706666-3.460741-3.242667-6.447407-6.646519-9.007407-10.24a69.850074 69.850074 0 0 1-8.874667-17.294223c-0.900741-2.522074-1.706667-5.091556-2.578963-8.163555-0.407704-1.431704-1.782519-6.504296-2.085926-7.585185-2.730667-9.699556-5.195852-14.411852-10.600296-17.237334-8.978963-4.683852-21.18163-1.374815-27.572148 8.628149-7.281778 11.387259-6.627556 29.364148 3.290074 52.86874l-0.32237 0.18963z" fill="#2A68A9" p-id="5569"></path><path d="M687.236741 829.44c9.007407 71.025778-54.490074 111.056593-108.98963 116.821333-54.528 5.764741-64.910222-53.892741-25.050074-68.427852 27.145481-9.889185 77.274074 0.151704 108.278519-33.801481l7.74637-1.716148 18.014815-12.875852z" fill="#97CFE6" p-id="5570"></path><path d="M665.381926 847.701333l-3.204741 3.299556a78.696296 78.696296 0 0 1-10.932148 8.817778 86.272 86.272 0 0 1-19.237926 9.509926c-7.755852 2.806519-16.772741 4.845037-26.519704 6.267259-9.746963 1.441185-20.252444 2.199704-30.957037 3.451259-5.30963 0.663704-10.733037 1.431704-15.786666 2.863408-0.635259 0.180148-1.289481 0.350815-1.886815 0.559407l-1.611852 0.530963-2.029037 0.853333c-0.635259 0.284444-1.441185 0.568889-1.886815 0.853334-1.014519 0.57837-2.057481 0.995556-3.109926 1.773037l-1.583407 1.042963-1.479111 1.175703c-1.042963 0.739556-1.848889 1.697185-2.778074 2.541037l-1.232593 1.441185c-0.426667 0.474074-0.83437 0.948148-1.166222 1.488593a27.050667 27.050667 0 0 0-3.574519 6.665482c-0.910222 2.37037-1.384296 4.93037-1.649777 7.49037-0.227556 2.578963-0.018963 5.195852 0.417185 7.774815 0.474074 2.569481 1.393778 5.063111 2.522074 7.433481 1.156741 2.37037 2.730667 4.54163 4.465778 6.561185 1.829926 1.953185 3.877926 3.726222 6.162963 5.214815 2.322963 1.431704 4.769185 2.711704 7.424 3.574519a47.369481 47.369481 0 0 0 16.896 2.446222c1.460148-0.037926 2.939259-0.18963 4.399407-0.284444l0.549926-0.028445 0.493037-0.047407 1.175704-0.142223 2.37037-0.293925a142.317037 142.317037 0 0 0 42.609778-12.790519c5.205333-2.474667 10.107259-5.281185 14.743703-8.286815a109.037037 109.037037 0 0 0 12.932741-9.623704c3.944296-3.432296 7.566222-6.97837 10.770963-10.685629 1.668741-1.782519 3.081481-3.735704 4.579556-5.56563 0.682667-0.976593 1.34637-1.924741 2.019555-2.853926 0.682667-0.938667 1.336889-1.877333 1.91526-2.844444l1.801481-2.844445c0.521481-0.95763 1.071407-1.915259 1.583407-2.863407 1.09037-1.867852 1.934222-3.811556 2.834963-5.679407 0.891259-1.867852 1.583407-3.754667 2.351408-5.556149 0.692148-1.829926 1.251556-3.65037 1.867852-5.404444 2.285037-7.035259 3.413333-13.473185 4.190814-18.839704l0.493038-3.821037 0.293925-3.413333c0.180148-2.133333 0.341333-3.944296 0.37926-5.423407 0.113778-2.958222 0.237037-4.560593 0.237037-4.560593s0.426667 1.517037 1.137778 4.446815c0.151704 0.720593 0.379259 1.536 0.540444 2.455703l0.455111 2.977186c0.142222 1.071407 0.379259 2.247111 0.474074 3.498666l0.284445 3.991704c0.284444 5.641481 0.094815 12.61037-1.536 20.442074-0.493037 1.943704-0.948148 3.944296-1.545482 5.992296-0.682667 2.000593-1.232593 4.152889-2.085926 6.229334-0.872296 2.076444-1.678222 4.257185-2.749629 6.371555-0.512 1.071407-1.042963 2.142815-1.592889 3.223704l-1.792 3.223704c-1.156741 2.199704-2.635852 4.276148-4.02963 6.456889-1.545481 2.085926-3.00563 4.276148-4.750222 6.314666a100.882963 100.882963 0 0 1-11.444148 12.041482 126.245926 126.245926 0 0 1-29.686519 19.873185 151.798519 151.798519 0 0 1-45.937778 14.023111l-2.360889 0.293926-1.175703 0.151704-0.70163 0.094814-0.635259 0.047408c-1.706667 0.123259-3.413333 0.274963-5.138963 0.341333a58.55763 58.55763 0 0 1-20.859259-2.967704 46.241185 46.241185 0 0 1-9.784889-4.67437 44.183704 44.183704 0 0 1-8.372148-7.025778 41.936593 41.936593 0 0 1-6.181926-8.969481 40.77037 40.77037 0 0 1-3.508148-10.192593 40.343704 40.343704 0 0 1-0.625778-10.676148 39.442963 39.442963 0 0 1 2.247111-10.391704c2.446222-6.627556 6.693926-12.591407 12.079407-16.905481l2.019556-1.611852 2.152296-1.393778c1.355852-0.976593 3.034074-1.754074 4.589037-2.56 0.853333-0.474074 1.422222-0.644741 2.133334-0.957629l2.019555-0.834371 0.512-0.189629 0.284445-0.094815 0.57837-0.18963 1.137778-0.379259c0.777481-0.284444 1.536-0.474074 2.294518-0.682667 6.068148-1.706667 11.899259-2.49363 17.493334-3.20474 11.178667-1.298963 21.43763-2.010074 30.691555-3.375408 9.263407-1.34637 17.512296-3.109926 24.433778-5.594074a76.003556 76.003556 0 0 0 16.858074-8.154074 72.059259 72.059259 0 0 0 9.244444-7.310222l3.166815-3.242667 0.037926-0.028444a5.461333 5.461333 0 0 1 7.632593-0.12326 5.214815 5.214815 0 0 1 0.142222 7.461926z" fill="#2A68A9" p-id="5571"></path><path d="M271.36 798.966519c33.735111-3.697778 58.614519 34.654815 39.348148 60.852148-14.791111 20.119704-34.588444-20.423111-37.243259-39.205926-1.782519-12.581926-2.104889-21.646222-2.104889-21.646222z" fill="#97CFE6" p-id="5572"></path><path d="M275.892148 803.223704c10.24 1.289481 20.603259 8.277333 26.481778 17.872592 6.229333 10.164148 6.580148 21.475556 0.056889 31.67763-10.524444 16.459852-38.475852 16.137481-48.64 0.028444-7.054222-11.178667-9.784889-26.320593-6.864593-40.609185 3.309037-16.184889 13.397333-30.084741 30.170074-39.442963a5.328593 5.328593 0 0 0 2.057482-7.120592 5.063111 5.063111 0 0 0-6.949926-2.114371c-19.418074 10.81837-31.383704 27.306667-35.309037 46.52563-3.470222 16.990815-0.237037 34.967704 8.296296 48.478815 14.14637 22.452148 51.2 22.878815 65.801482 0.018963 8.827259-13.786074 8.343704-29.534815 0.056888-43.036445-7.49037-12.22163-20.536889-21.039407-33.905777-22.717629a5.157926 5.157926 0 0 0-5.717334 4.579555 5.233778 5.233778 0 0 0 4.465778 5.859556z" fill="#2A68A9" p-id="5573"></path></svg>